{
    "patcher": {
        "fileversion": 1,
        "appversion": {
            "major": 9,
            "minor": 1,
            "revision": 0,
            "architecture": "x64",
            "modernui": 1
        },
        "classnamespace": "box",
        "rect": [ 369.0, 69.0, 333.0, 710.0 ],
        "toolbarvisible": 0,
        "enablehscroll": 0,
        "enablevscroll": 0,
        "boxes": [
            {
                "box": {
                    "id": "obj-5",
                    "maxclass": "message",
                    "numinlets": 2,
                    "numoutlets": 1,
                    "outlettype": [ "" ],
                    "patching_rect": [ 115.0, 28.0, 75.0, 22.0 ],
                    "text": "set A1_blp"
                }
            },
            {
                "box": {
                    "id": "obj-2",
                    "maxclass": "newobj",
                    "numinlets": 1,
                    "numoutlets": 1,
                    "outlettype": [ "multichannelsignal" ],
                    "patching_rect": [ 115.0, 61.0, 188.0, 22.0 ],
                    "text": "mc.receive~ A1_blp @chans 8"
                }
            },
            {
                "box": {
                    "hidden": 1,
                    "id": "obj-1",
                    "linecount": 2,
                    "maxclass": "newobj",
                    "numinlets": 1,
                    "numoutlets": 4,
                    "outlettype": [ "", "", "", "" ],
                    "patching_rect": [ 222.0, 206.0, 102.0, 35.0 ],
                    "restore": {
                        "button": [ 0.0 ],
                        "live.slider": [ 0.0 ],
                        "matrixctrl": [ 0, 0, 1.0, 1, 1, 1.0, 2, 2, 1.0, 3, 3, 1.0 ],
                        "number": [ 0.0 ],
                        "toggle": [ 0 ]
                    },
                    "text": "autopattr @autoname 1",
                    "varname": "u692005336"
                }
            },
            {
                "box": {
                    "id": "obj-17",
                    "maxclass": "button",
                    "numinlets": 1,
                    "numoutlets": 1,
                    "outlettype": [ "bang" ],
                    "parameter_enable": 0,
                    "patching_rect": [ 175.0, 244.0, 24.0, 24.0 ],
                    "varname": "button"
                }
            },
            {
                "box": {
                    "id": "obj-14",
                    "maxclass": "matrixctrl",
                    "numinlets": 1,
                    "numoutlets": 2,
                    "outlettype": [ "list", "list" ],
                    "parameter_enable": 0,
                    "patching_rect": [ 194.0, 104.0, 130.0, 66.0 ],
                    "varname": "matrixctrl"
                }
            },
            {
                "box": {
                    "id": "obj-13",
                    "maxclass": "newobj",
                    "numinlets": 8,
                    "numoutlets": 5,
                    "outlettype": [ "signal", "signal", "signal", "signal", "" ],
                    "patching_rect": [ 61.0, 156.0, 120.99999999999994, 22.0 ],
                    "text": "matrix~ 8 4"
                }
            },
            {
                "box": {
                    "buffername": "rec",
                    "chanoffset": 4,
                    "id": "obj-10",
                    "maxclass": "waveform~",
                    "numinlets": 5,
                    "numoutlets": 6,
                    "outlettype": [ "float", "float", "float", "float", "list", "" ],
                    "patching_rect": [ 31.0, 519.0, 268.0, 61.0 ],
                    "setmode": 3
                }
            },
            {
                "box": {
                    "buffername": "rec",
                    "chanoffset": 3,
                    "id": "obj-12",
                    "maxclass": "waveform~",
                    "numinlets": 5,
                    "numoutlets": 6,
                    "outlettype": [ "float", "float", "float", "float", "list", "" ],
                    "patching_rect": [ 31.0, 455.0, 268.0, 61.0 ],
                    "setmode": 3
                }
            },
            {
                "box": {
                    "id": "obj-8",
                    "maxclass": "newobj",
                    "numinlets": 0,
                    "numoutlets": 4,
                    "outlettype": [ "", "", "", "" ],
                    "patcher": {
                        "fileversion": 1,
                        "appversion": {
                            "major": 9,
                            "minor": 1,
                            "revision": 0,
                            "architecture": "x64",
                            "modernui": 1
                        },
                        "classnamespace": "box",
                        "rect": [ 59.0, 119.0, 383.0, 367.0 ],
                        "boxes": [
                            {
                                "box": {
                                    "fontname": "Arial",
                                    "fontsize": 13.0,
                                    "id": "obj-8",
                                    "maxclass": "message",
                                    "numinlets": 2,
                                    "numoutlets": 1,
                                    "outlettype": [ "" ],
                                    "patching_rect": [ 149.0, 222.0, 81.0, 23.0 ],
                                    "text": "name rec 4"
                                }
                            },
                            {
                                "box": {
                                    "comment": "",
                                    "id": "obj-9",
                                    "index": 4,
                                    "maxclass": "outlet",
                                    "numinlets": 1,
                                    "numoutlets": 0,
                                    "patching_rect": [ 149.0, 267.0, 24.0, 24.0 ]
                                }
                            },
                            {
                                "box": {
                                    "fontname": "Arial",
                                    "fontsize": 13.0,
                                    "id": "obj-4",
                                    "maxclass": "message",
                                    "numinlets": 2,
                                    "numoutlets": 1,
                                    "outlettype": [ "" ],
                                    "patching_rect": [ 119.0, 194.0, 81.0, 23.0 ],
                                    "text": "name rec 3"
                                }
                            },
                            {
                                "box": {
                                    "comment": "",
                                    "id": "obj-7",
                                    "index": 3,
                                    "maxclass": "outlet",
                                    "numinlets": 1,
                                    "numoutlets": 0,
                                    "patching_rect": [ 119.0, 267.0, 24.0, 24.0 ]
                                }
                            },
                            {
                                "box": {
                                    "id": "obj-3",
                                    "maxclass": "newobj",
                                    "numinlets": 1,
                                    "numoutlets": 1,
                                    "outlettype": [ "bang" ],
                                    "patching_rect": [ 119.0, 73.0, 75.0, 22.0 ],
                                    "text": "loadbang"
                                }
                            },
                            {
                                "box": {
                                    "fontname": "Arial",
                                    "fontsize": 13.0,
                                    "id": "obj-2",
                                    "maxclass": "message",
                                    "numinlets": 2,
                                    "numoutlets": 1,
                                    "outlettype": [ "" ],
                                    "patching_rect": [ 85.0, 164.0, 81.0, 23.0 ],
                                    "text": "name rec 2"
                                }
                            },
                            {
                                "box": {
                                    "fontname": "Arial",
                                    "fontsize": 13.0,
                                    "id": "obj-1",
                                    "maxclass": "message",
                                    "numinlets": 2,
                                    "numoutlets": 1,
                                    "outlettype": [ "" ],
                                    "patching_rect": [ 50.0, 133.0, 81.0, 23.0 ],
                                    "text": "name rec 1"
                                }
                            },
                            {
                                "box": {
                                    "comment": "",
                                    "id": "obj-5",
                                    "index": 1,
                                    "maxclass": "outlet",
                                    "numinlets": 1,
                                    "numoutlets": 0,
                                    "patching_rect": [ 50.0, 267.0, 24.0, 24.0 ]
                                }
                            },
                            {
                                "box": {
                                    "comment": "",
                                    "id": "obj-6",
                                    "index": 2,
                                    "maxclass": "outlet",
                                    "numinlets": 1,
                                    "numoutlets": 0,
                                    "patching_rect": [ 85.0, 267.0, 24.0, 24.0 ]
                                }
                            }
                        ],
                        "lines": [
                            {
                                "patchline": {
                                    "destination": [ "obj-5", 0 ],
                                    "source": [ "obj-1", 0 ]
                                }
                            },
                            {
                                "patchline": {
                                    "destination": [ "obj-6", 0 ],
                                    "source": [ "obj-2", 0 ]
                                }
                            },
                            {
                                "patchline": {
                                    "destination": [ "obj-1", 0 ],
                                    "order": 3,
                                    "source": [ "obj-3", 0 ]
                                }
                            },
                            {
                                "patchline": {
                                    "destination": [ "obj-2", 0 ],
                                    "order": 2,
                                    "source": [ "obj-3", 0 ]
                                }
                            },
                            {
                                "patchline": {
                                    "destination": [ "obj-4", 0 ],
                                    "order": 1,
                                    "source": [ "obj-3", 0 ]
                                }
                            },
                            {
                                "patchline": {
                                    "destination": [ "obj-8", 0 ],
                                    "order": 0,
                                    "source": [ "obj-3", 0 ]
                                }
                            },
                            {
                                "patchline": {
                                    "destination": [ "obj-7", 0 ],
                                    "source": [ "obj-4", 0 ]
                                }
                            },
                            {
                                "patchline": {
                                    "destination": [ "obj-9", 0 ],
                                    "source": [ "obj-8", 0 ]
                                }
                            }
                        ]
                    },
                    "patching_rect": [ 8.0, 284.0, 49.0, 22.0 ],
                    "text": "p"
                }
            },
            {
                "box": {
                    "buffername": "rec",
                    "chanoffset": 2,
                    "id": "obj-4",
                    "maxclass": "waveform~",
                    "numinlets": 5,
                    "numoutlets": 6,
                    "outlettype": [ "float", "float", "float", "float", "list", "" ],
                    "patching_rect": [ 31.0, 391.0, 268.0, 61.0 ],
                    "setmode": 3
                }
            },
            {
                "box": {
                    "id": "obj-36",
                    "maxclass": "message",
                    "numinlets": 2,
                    "numoutlets": 1,
                    "outlettype": [ "" ],
                    "patching_rect": [ 8.0, 228.0, 37.0, 22.0 ],
                    "text": "clear"
                }
            },
            {
                "box": {
                    "id": "obj-34",
                    "maxclass": "message",
                    "numinlets": 2,
                    "numoutlets": 1,
                    "outlettype": [ "" ],
                    "patching_rect": [ 185.0, 284.0, 53.0, 22.0 ],
                    "text": "10000"
                }
            },
            {
                "box": {
                    "id": "obj-33",
                    "maxclass": "message",
                    "numinlets": 2,
                    "numoutlets": 1,
                    "outlettype": [ "" ],
                    "patching_rect": [ 156.0, 284.0, 29.0, 22.0 ],
                    "text": "0"
                }
            },
            {
                "box": {
                    "id": "obj-31",
                    "maxclass": "newobj",
                    "numinlets": 2,
                    "numoutlets": 1,
                    "outlettype": [ "float" ],
                    "patching_rect": [ 131.0, 590.0, 43.0, 22.0 ],
                    "text": "!- 0."
                }
            },
            {
                "box": {
                    "format": 6,
                    "id": "obj-30",
                    "maxclass": "flonum",
                    "numinlets": 1,
                    "numoutlets": 2,
                    "outlettype": [ "", "bang" ],
                    "parameter_enable": 0,
                    "patching_rect": [ 131.0, 624.0, 68.0, 22.0 ],
                    "varname": "number"
                }
            },
            {
                "box": {
                    "focusbordercolor": [ 0.313725490196078, 0.313725490196078, 0.313725490196078, 0.0 ],
                    "id": "obj-188",
                    "maxclass": "live.slider",
                    "numinlets": 1,
                    "numoutlets": 2,
                    "outlettype": [ "", "float" ],
                    "parameter_enable": 1,
                    "patching_rect": [ 301.0, 447.0, 18.0, 133.0 ],
                    "presentation": 1,
                    "presentation_rect": [ 510.0, 106.0, 18.0, 50.0 ],
                    "saved_attribute_attributes": {
                        "focusbordercolor": {
                            "expression": ""
                        },
                        "slidercolor": {
                            "expression": ""
                        },
                        "textcolor": {
                            "expression": ""
                        },
                        "tribordercolor": {
                            "expression": ""
                        },
                        "tricolor": {
                            "expression": ""
                        },
                        "trioncolor": {
                            "expression": ""
                        },
                        "valueof": {
                            "parameter_exponent": 1.5,
                            "parameter_longname": "live.slider[1]",
                            "parameter_mmax": 1.0,
                            "parameter_modmode": 0,
                            "parameter_shortname": "live.slider",
                            "parameter_type": 0,
                            "parameter_unitstyle": 1
                        }
                    },
                    "showname": 0,
                    "shownumber": 0,
                    "slidercolor": [ 0.474509803921569, 0.572549019607843, 0.364705882352941, 1.0 ],
                    "textcolor": [ 0.0, 0.0, 0.0, 0.0 ],
                    "tribordercolor": [ 0.737254901960784, 0.776470588235294, 0.494117647058824, 1.0 ],
                    "tricolor": [ 0.447058823529412, 0.447058823529412, 0.447058823529412, 1.0 ],
                    "trioncolor": [ 0.435294117647059, 0.435294117647059, 0.435294117647059, 1.0 ],
                    "varname": "live.slider"
                }
            },
            {
                "box": {
                    "fontsize": 11.0,
                    "hidden": 1,
                    "id": "obj-183",
                    "maxclass": "newobj",
                    "numinlets": 1,
                    "numoutlets": 2,
                    "outlettype": [ "", "" ],
                    "patcher": {
                        "fileversion": 1,
                        "appversion": {
                            "major": 9,
                            "minor": 1,
                            "revision": 0,
                            "architecture": "x64",
                            "modernui": 1
                        },
                        "classnamespace": "box",
                        "rect": [ 134.0, 172.0, 477.0, 386.0 ],
                        "subpatcher_template": "Default Max 7",
                        "boxes": [
                            {
                                "box": {
                                    "comment": "",
                                    "id": "obj-2",
                                    "index": 2,
                                    "maxclass": "outlet",
                                    "numinlets": 1,
                                    "numoutlets": 0,
                                    "patching_rect": [ 197.0, 241.0, 30.0, 30.0 ]
                                }
                            },
                            {
                                "box": {
                                    "id": "obj-10",
                                    "maxclass": "newobj",
                                    "numinlets": 1,
                                    "numoutlets": 1,
                                    "outlettype": [ "" ],
                                    "patching_rect": [ 197.0, 154.0, 146.0, 22.0 ],
                                    "text": "expr pow((1-$f1*0.95) \\, 2)"
                                }
                            },
                            {
                                "box": {
                                    "id": "obj-9",
                                    "maxclass": "newobj",
                                    "numinlets": 2,
                                    "numoutlets": 2,
                                    "outlettype": [ "", "" ],
                                    "patching_rect": [ 89.0, 99.0, 127.0, 22.0 ],
                                    "text": "route bang"
                                }
                            },
                            {
                                "box": {
                                    "id": "obj-7",
                                    "maxclass": "message",
                                    "numinlets": 2,
                                    "numoutlets": 1,
                                    "outlettype": [ "" ],
                                    "patching_rect": [ 197.0, 194.0, 63.0, 22.0 ],
                                    "text": "vzoom $1"
                                }
                            },
                            {
                                "box": {
                                    "comment": "",
                                    "id": "obj-6",
                                    "index": 1,
                                    "maxclass": "outlet",
                                    "numinlets": 1,
                                    "numoutlets": 0,
                                    "patching_rect": [ 89.0, 241.0, 30.0, 30.0 ]
                                }
                            },
                            {
                                "box": {
                                    "id": "obj-5",
                                    "maxclass": "message",
                                    "numinlets": 2,
                                    "numoutlets": 1,
                                    "outlettype": [ "" ],
                                    "patching_rect": [ 89.0, 194.0, 63.0, 22.0 ],
                                    "text": "labels $1"
                                }
                            },
                            {
                                "box": {
                                    "id": "obj-3",
                                    "maxclass": "toggle",
                                    "numinlets": 1,
                                    "numoutlets": 1,
                                    "outlettype": [ "int" ],
                                    "parameter_enable": 0,
                                    "patching_rect": [ 89.0, 139.0, 24.0, 24.0 ]
                                }
                            },
                            {
                                "box": {
                                    "comment": "",
                                    "id": "obj-1",
                                    "index": 1,
                                    "maxclass": "inlet",
                                    "numinlets": 0,
                                    "numoutlets": 1,
                                    "outlettype": [ "" ],
                                    "patching_rect": [ 89.0, 57.0, 30.0, 30.0 ]
                                }
                            }
                        ],
                        "lines": [
                            {
                                "patchline": {
                                    "destination": [ "obj-9", 0 ],
                                    "source": [ "obj-1", 0 ]
                                }
                            },
                            {
                                "patchline": {
                                    "destination": [ "obj-7", 0 ],
                                    "source": [ "obj-10", 0 ]
                                }
                            },
                            {
                                "patchline": {
                                    "destination": [ "obj-5", 0 ],
                                    "source": [ "obj-3", 0 ]
                                }
                            },
                            {
                                "patchline": {
                                    "destination": [ "obj-6", 0 ],
                                    "source": [ "obj-5", 0 ]
                                }
                            },
                            {
                                "patchline": {
                                    "destination": [ "obj-2", 0 ],
                                    "order": 0,
                                    "source": [ "obj-7", 0 ]
                                }
                            },
                            {
                                "patchline": {
                                    "destination": [ "obj-6", 0 ],
                                    "midpoints": [ 206.5, 228.0, 98.5, 228.0 ],
                                    "order": 1,
                                    "source": [ "obj-7", 0 ]
                                }
                            },
                            {
                                "patchline": {
                                    "destination": [ "obj-10", 0 ],
                                    "source": [ "obj-9", 1 ]
                                }
                            },
                            {
                                "patchline": {
                                    "destination": [ "obj-3", 0 ],
                                    "source": [ "obj-9", 0 ]
                                }
                            }
                        ]
                    },
                    "patching_rect": [ 258.0, 602.0, 41.0, 21.0 ],
                    "text": "p wfd"
                }
            },
            {
                "box": {
                    "bgmode": 0,
                    "border": 0,
                    "clickthrough": 0,
                    "embed": 1,
                    "enablehscroll": 0,
                    "enablevscroll": 0,
                    "id": "obj-26",
                    "lockeddragscroll": 0,
                    "lockedsize": 0,
                    "maxclass": "bpatcher",
                    "numinlets": 0,
                    "numoutlets": 1,
                    "offset": [ 0.0, 0.0 ],
                    "outlettype": [ "" ],
                    "patcher": {
                        "fileversion": 1,
                        "appversion": {
                            "major": 9,
                            "minor": 1,
                            "revision": 0,
                            "architecture": "x64",
                            "modernui": 1
                        },
                        "classnamespace": "box",
                        "openrect": [ 177.0, 222.0, 188.0, 237.0 ],
                        "openrectmode": 0,
                        "openinpresentation": 1,
                        "devicewidth": 188.0,
                        "boxes": [
                            {
                                "box": {
                                    "bkgndpict": "wfmodes.png",
                                    "bottomvalue": 3,
                                    "id": "obj-11",
                                    "imagemask": 1,
                                    "inactiveimage": 0,
                                    "knobpict": "wfknob.png",
                                    "maxclass": "pictslider",
                                    "movehorizontal": 0,
                                    "numinlets": 2,
                                    "numoutlets": 2,
                                    "outlettype": [ "int", "int" ],
                                    "parameter_enable": 0,
                                    "patching_rect": [ 13.0, 32.5, 19.0, 76.0 ],
                                    "presentation": 1,
                                    "presentation_rect": [ 1.0, 0.5, 19.0, 76.0 ],
                                    "rightvalue": 0,
                                    "topvalue": 0
                                }
                            },
                            {
                                "box": {
                                    "fontname": "Arial",
                                    "fontsize": 11.595187,
                                    "id": "obj-15",
                                    "maxclass": "newobj",
                                    "numinlets": 1,
                                    "numoutlets": 2,
                                    "outlettype": [ "", "" ],
                                    "patcher": {
                                        "fileversion": 1,
                                        "appversion": {
                                            "major": 9,
                                            "minor": 1,
                                            "revision": 0,
                                            "architecture": "x64",
                                            "modernui": 1
                                        },
                                        "classnamespace": "box",
                                        "rect": [ 175.0, 158.0, 298.0, 526.0 ],
                                        "default_fontsize": 10.0,
                                        "boxes": [
                                            {
                                                "box": {
                                                    "id": "obj-24",
                                                    "maxclass": "comment",
                                                    "numinlets": 1,
                                                    "numoutlets": 0,
                                                    "patching_rect": [ 17.0, 9.0, 137.0, 18.0 ],
                                                    "style": "helpfile_label",
                                                    "text": "(special thanks to Pure)"
                                                }
                                            },
                                            {
                                                "box": {
                                                    "comment": "",
                                                    "id": "obj-14",
                                                    "index": 2,
                                                    "maxclass": "outlet",
                                                    "numinlets": 1,
                                                    "numoutlets": 0,
                                                    "patching_rect": [ 225.0, 476.0, 25.0, 25.0 ]
                                                }
                                            },
                                            {
                                                "box": {
                                                    "fontsize": 12.0,
                                                    "id": "obj-13",
                                                    "maxclass": "message",
                                                    "numinlets": 2,
                                                    "numoutlets": 1,
                                                    "outlettype": [ "" ],
                                                    "patching_rect": [ 225.0, 443.571411, 44.0, 22.0 ],
                                                    "text": "set $1"
                                                }
                                            },
                                            {
                                                "box": {
                                                    "fontname": "Arial",
                                                    "fontsize": 12.0,
                                                    "id": "obj-31",
                                                    "maxclass": "newobj",
                                                    "numinlets": 2,
                                                    "numoutlets": 1,
                                                    "outlettype": [ "int" ],
                                                    "patching_rect": [ 77.5, 154.0, 35.0, 22.0 ],
                                                    "text": "1"
                                                }
                                            },
                                            {
                                                "box": {
                                                    "fontname": "Arial",
                                                    "fontsize": 12.0,
                                                    "id": "obj-30",
                                                    "maxclass": "newobj",
                                                    "numinlets": 2,
                                                    "numoutlets": 1,
                                                    "outlettype": [ "int" ],
                                                    "patching_rect": [ 20.0, 154.0, 35.0, 22.0 ],
                                                    "text": "2"
                                                }
                                            },
                                            {
                                                "box": {
                                                    "fontname": "Arial",
                                                    "fontsize": 12.0,
                                                    "id": "obj-29",
                                                    "maxclass": "newobj",
                                                    "numinlets": 1,
                                                    "numoutlets": 1,
                                                    "outlettype": [ "bang" ],
                                                    "patching_rect": [ 19.0, 38.0, 61.0, 22.0 ],
                                                    "text": "loadbang"
                                                }
                                            },
                                            {
                                                "box": {
                                                    "fontname": "Arial",
                                                    "fontsize": 12.0,
                                                    "id": "obj-28",
                                                    "maxclass": "newobj",
                                                    "numinlets": 3,
                                                    "numoutlets": 1,
                                                    "outlettype": [ "" ],
                                                    "patching_rect": [ 144.21875, 213.0, 60.929688, 22.0 ],
                                                    "text": "switch"
                                                }
                                            },
                                            {
                                                "box": {
                                                    "fontname": "Arial",
                                                    "fontsize": 12.0,
                                                    "id": "obj-25",
                                                    "maxclass": "newobj",
                                                    "numinlets": 3,
                                                    "numoutlets": 3,
                                                    "outlettype": [ "bang", "bang", "" ],
                                                    "patching_rect": [ 20.0, 126.0, 134.0, 22.0 ],
                                                    "text": "sel macintosh windows"
                                                }
                                            },
                                            {
                                                "box": {
                                                    "fontname": "Arial",
                                                    "fontsize": 12.0,
                                                    "id": "obj-22",
                                                    "maxclass": "newobj",
                                                    "numinlets": 0,
                                                    "numoutlets": 1,
                                                    "outlettype": [ "" ],
                                                    "patching_rect": [ 20.0, 101.0, 106.0, 22.0 ],
                                                    "text": "r #0_getsystem"
                                                }
                                            },
                                            {
                                                "box": {
                                                    "fontname": "Arial",
                                                    "fontsize": 12.0,
                                                    "id": "obj-21",
                                                    "linecount": 2,
                                                    "maxclass": "message",
                                                    "numinlets": 2,
                                                    "numoutlets": 1,
                                                    "outlettype": [ "" ],
                                                    "patching_rect": [ 19.0, 64.0, 183.0, 35.0 ],
                                                    "text": ";\rmax getsystem #0_getsystem"
                                                }
                                            },
                                            {
                                                "box": {
                                                    "fontname": "Arial",
                                                    "fontsize": 12.0,
                                                    "id": "obj-1",
                                                    "maxclass": "newobj",
                                                    "numinlets": 2,
                                                    "numoutlets": 1,
                                                    "outlettype": [ "int" ],
                                                    "patching_rect": [ 144.21875, 408.571411, 32.0, 22.0 ],
                                                    "text": "int"
                                                }
                                            },
                                            {
                                                "box": {
                                                    "fontname": "Arial",
                                                    "fontsize": 12.0,
                                                    "id": "obj-10",
                                                    "maxclass": "newobj",
                                                    "numinlets": 1,
                                                    "numoutlets": 5,
                                                    "outlettype": [ "int", "int", "int", "int", "int" ],
                                                    "patching_rect": [ 121.25, 154.0, 105.53125, 22.0 ],
                                                    "text": "modifiers 100"
                                                }
                                            },
                                            {
                                                "box": {
                                                    "coll_data": {
                                                        "count": 4,
                                                        "data": [
                                                            {
                                                                "key": 0,
                                                                "value": [ "mode", "select" ]
                                                            },
                                                            {
                                                                "key": 1,
                                                                "value": [ "mode", "loop" ]
                                                            },
                                                            {
                                                                "key": 2,
                                                                "value": [ "mode", "move" ]
                                                            },
                                                            {
                                                                "key": 3,
                                                                "value": [ "mode", "draw" ]
                                                            }
                                                        ]
                                                    },
                                                    "fontname": "Arial",
                                                    "fontsize": 12.0,
                                                    "id": "obj-2",
                                                    "maxclass": "newobj",
                                                    "numinlets": 1,
                                                    "numoutlets": 4,
                                                    "outlettype": [ "", "", "", "" ],
                                                    "patching_rect": [ 144.21875, 443.571411, 62.0, 22.0 ],
                                                    "saved_object_attributes": {
                                                        "embed": 1,
                                                        "precision": 6
                                                    },
                                                    "text": "coll"
                                                }
                                            },
                                            {
                                                "box": {
                                                    "fontname": "Arial",
                                                    "fontsize": 12.0,
                                                    "id": "obj-3",
                                                    "maxclass": "newobj",
                                                    "numinlets": 2,
                                                    "numoutlets": 1,
                                                    "outlettype": [ "int" ],
                                                    "patching_rect": [ 144.21875, 287.571411, 32.0, 22.0 ],
                                                    "text": "|"
                                                }
                                            },
                                            {
                                                "box": {
                                                    "comment": "waveform~ mode messages",
                                                    "id": "obj-4",
                                                    "index": 1,
                                                    "maxclass": "inlet",
                                                    "numinlets": 0,
                                                    "numoutlets": 1,
                                                    "outlettype": [ "int" ],
                                                    "patching_rect": [ 32.5, 298.571411, 25.0, 25.0 ]
                                                }
                                            },
                                            {
                                                "box": {
                                                    "fontname": "Arial",
                                                    "fontsize": 12.0,
                                                    "id": "obj-5",
                                                    "maxclass": "newobj",
                                                    "numinlets": 2,
                                                    "numoutlets": 1,
                                                    "outlettype": [ "int" ],
                                                    "patching_rect": [ 207.78125, 213.0, 36.0, 22.0 ],
                                                    "text": "<< 1"
                                                }
                                            },
                                            {
                                                "box": {
                                                    "fontname": "Arial",
                                                    "fontsize": 12.0,
                                                    "id": "obj-6",
                                                    "maxclass": "newobj",
                                                    "numinlets": 1,
                                                    "numoutlets": 3,
                                                    "outlettype": [ "", "int", "int" ],
                                                    "patching_rect": [ 144.21875, 319.571411, 51.0, 22.0 ],
                                                    "text": "change"
                                                }
                                            },
                                            {
                                                "box": {
                                                    "fontname": "Arial",
                                                    "fontsize": 12.0,
                                                    "id": "obj-7",
                                                    "maxclass": "newobj",
                                                    "numinlets": 2,
                                                    "numoutlets": 2,
                                                    "outlettype": [ "bang", "" ],
                                                    "patching_rect": [ 144.21875, 352.571411, 99.78125, 22.0 ],
                                                    "text": "select 0"
                                                }
                                            },
                                            {
                                                "box": {
                                                    "fontname": "Arial",
                                                    "fontsize": 12.0,
                                                    "id": "obj-8",
                                                    "maxclass": "newobj",
                                                    "numinlets": 2,
                                                    "numoutlets": 1,
                                                    "outlettype": [ "" ],
                                                    "patching_rect": [ 144.21875, 253.571411, 36.0, 22.0 ],
                                                    "text": "pak"
                                                }
                                            },
                                            {
                                                "box": {
                                                    "comment": "",
                                                    "id": "obj-9",
                                                    "index": 1,
                                                    "maxclass": "outlet",
                                                    "numinlets": 1,
                                                    "numoutlets": 0,
                                                    "patching_rect": [ 144.21875, 476.0, 25.0, 25.0 ]
                                                }
                                            }
                                        ],
                                        "lines": [
                                            {
                                                "patchline": {
                                                    "destination": [ "obj-13", 0 ],
                                                    "order": 0,
                                                    "source": [ "obj-1", 0 ]
                                                }
                                            },
                                            {
                                                "patchline": {
                                                    "destination": [ "obj-2", 0 ],
                                                    "order": 1,
                                                    "source": [ "obj-1", 0 ]
                                                }
                                            },
                                            {
                                                "patchline": {
                                                    "destination": [ "obj-28", 2 ],
                                                    "source": [ "obj-10", 3 ]
                                                }
                                            },
                                            {
                                                "patchline": {
                                                    "destination": [ "obj-28", 1 ],
                                                    "source": [ "obj-10", 2 ]
                                                }
                                            },
                                            {
                                                "patchline": {
                                                    "destination": [ "obj-5", 0 ],
                                                    "source": [ "obj-10", 4 ]
                                                }
                                            },
                                            {
                                                "patchline": {
                                                    "destination": [ "obj-14", 0 ],
                                                    "source": [ "obj-13", 0 ]
                                                }
                                            },
                                            {
                                                "patchline": {
                                                    "destination": [ "obj-9", 0 ],
                                                    "source": [ "obj-2", 0 ]
                                                }
                                            },
                                            {
                                                "patchline": {
                                                    "destination": [ "obj-25", 0 ],
                                                    "source": [ "obj-22", 0 ]
                                                }
                                            },
                                            {
                                                "patchline": {
                                                    "destination": [ "obj-30", 0 ],
                                                    "source": [ "obj-25", 0 ]
                                                }
                                            },
                                            {
                                                "patchline": {
                                                    "destination": [ "obj-31", 0 ],
                                                    "source": [ "obj-25", 1 ]
                                                }
                                            },
                                            {
                                                "patchline": {
                                                    "destination": [ "obj-8", 0 ],
                                                    "source": [ "obj-28", 0 ]
                                                }
                                            },
                                            {
                                                "patchline": {
                                                    "destination": [ "obj-21", 0 ],
                                                    "source": [ "obj-29", 0 ]
                                                }
                                            },
                                            {
                                                "patchline": {
                                                    "destination": [ "obj-6", 0 ],
                                                    "source": [ "obj-3", 0 ]
                                                }
                                            },
                                            {
                                                "patchline": {
                                                    "destination": [ "obj-28", 0 ],
                                                    "source": [ "obj-30", 0 ]
                                                }
                                            },
                                            {
                                                "patchline": {
                                                    "destination": [ "obj-28", 0 ],
                                                    "source": [ "obj-31", 0 ]
                                                }
                                            },
                                            {
                                                "patchline": {
                                                    "destination": [ "obj-1", 0 ],
                                                    "source": [ "obj-4", 0 ]
                                                }
                                            },
                                            {
                                                "patchline": {
                                                    "destination": [ "obj-8", 1 ],
                                                    "source": [ "obj-5", 0 ]
                                                }
                                            },
                                            {
                                                "patchline": {
                                                    "destination": [ "obj-7", 0 ],
                                                    "source": [ "obj-6", 0 ]
                                                }
                                            },
                                            {
                                                "patchline": {
                                                    "destination": [ "obj-1", 0 ],
                                                    "source": [ "obj-7", 0 ]
                                                }
                                            },
                                            {
                                                "patchline": {
                                                    "destination": [ "obj-13", 0 ],
                                                    "order": 0,
                                                    "source": [ "obj-7", 1 ]
                                                }
                                            },
                                            {
                                                "patchline": {
                                                    "destination": [ "obj-2", 0 ],
                                                    "order": 1,
                                                    "source": [ "obj-7", 1 ]
                                                }
                                            },
                                            {
                                                "patchline": {
                                                    "destination": [ "obj-3", 0 ],
                                                    "source": [ "obj-8", 0 ]
                                                }
                                            }
                                        ]
                                    },
                                    "patching_rect": [ 15.0, 127.5, 54.0, 21.0 ],
                                    "saved_object_attributes": {
                                        "fontsize": 10.0
                                    },
                                    "text": "p wfkeys"
                                }
                            },
                            {
                                "box": {
                                    "comment": "",
                                    "id": "obj-22",
                                    "index": 1,
                                    "maxclass": "outlet",
                                    "numinlets": 1,
                                    "numoutlets": 0,
                                    "patching_rect": [ 15.0, 164.0, 30.0, 30.0 ]
                                }
                            }
                        ],
                        "lines": [
                            {
                                "patchline": {
                                    "destination": [ "obj-15", 0 ],
                                    "source": [ "obj-11", 1 ]
                                }
                            },
                            {
                                "patchline": {
                                    "destination": [ "obj-11", 1 ],
                                    "midpoints": [ 59.5, 164.5, 110.0, 164.5, 110.0, 22.5, 24.5, 22.5 ],
                                    "source": [ "obj-15", 1 ]
                                }
                            },
                            {
                                "patchline": {
                                    "destination": [ "obj-22", 0 ],
                                    "source": [ "obj-15", 0 ]
                                }
                            }
                        ]
                    },
                    "patching_rect": [ 8.0, 373.0, 21.0, 79.0 ],
                    "viewvisibility": 1
                }
            },
            {
                "box": {
                    "buffername": "rec",
                    "id": "obj-18",
                    "maxclass": "waveform~",
                    "numinlets": 5,
                    "numoutlets": 6,
                    "outlettype": [ "float", "float", "float", "float", "list", "" ],
                    "patching_rect": [ 31.0, 327.0, 268.0, 61.0 ],
                    "setmode": 3
                }
            },
            {
                "box": {
                    "id": "obj-16",
                    "maxclass": "toggle",
                    "numinlets": 1,
                    "numoutlets": 1,
                    "outlettype": [ "int" ],
                    "parameter_enable": 0,
                    "patching_rect": [ 23.0, 155.0, 24.0, 24.0 ],
                    "varname": "toggle"
                }
            },
            {
                "box": {
                    "id": "obj-11",
                    "maxclass": "newobj",
                    "numinlets": 6,
                    "numoutlets": 1,
                    "outlettype": [ "signal" ],
                    "patching_rect": [ 61.0, 193.0, 146.4999999999999, 22.0 ],
                    "text": "record~ rec 4"
                }
            },
            {
                "box": {
                    "id": "obj-9",
                    "maxclass": "newobj",
                    "numinlets": 1,
                    "numoutlets": 8,
                    "outlettype": [ "signal", "signal", "signal", "signal", "signal", "signal", "signal", "signal" ],
                    "patching_rect": [ 61.0, 104.0, 121.0, 22.0 ],
                    "text": "mc.unpack~ 8"
                }
            },
            {
                "box": {
                    "id": "obj-7",
                    "maxclass": "newobj",
                    "numinlets": 1,
                    "numoutlets": 2,
                    "outlettype": [ "float", "bang" ],
                    "patching_rect": [ 8.0, 254.0, 128.0, 22.0 ],
                    "text": "buffer~ rec 10000 4"
                }
            },
            {
                "box": {
                    "comment": "",
                    "id": "obj-37",
                    "index": 0,
                    "maxclass": "inlet",
                    "numinlets": 0,
                    "numoutlets": 1,
                    "outlettype": [ "" ],
                    "patching_rect": [ 61.0, 61.0, 30.0, 30.0 ]
                }
            }
        ],
        "lines": [
            {
                "patchline": {
                    "destination": [ "obj-18", 4 ],
                    "hidden": 1,
                    "midpoints": [ 289.5, 590.63671875, 315.37890625, 590.63671875, 315.37890625, 317.0, 289.5, 317.0 ],
                    "source": [ "obj-10", 5 ]
                }
            },
            {
                "patchline": {
                    "destination": [ "obj-10", 4 ],
                    "source": [ "obj-12", 5 ]
                }
            },
            {
                "patchline": {
                    "destination": [ "obj-11", 3 ],
                    "source": [ "obj-13", 3 ]
                }
            },
            {
                "patchline": {
                    "destination": [ "obj-11", 2 ],
                    "source": [ "obj-13", 2 ]
                }
            },
            {
                "patchline": {
                    "destination": [ "obj-11", 1 ],
                    "source": [ "obj-13", 1 ]
                }
            },
            {
                "patchline": {
                    "destination": [ "obj-11", 0 ],
                    "source": [ "obj-13", 0 ]
                }
            },
            {
                "patchline": {
                    "destination": [ "obj-13", 0 ],
                    "source": [ "obj-14", 0 ]
                }
            },
            {
                "patchline": {
                    "destination": [ "obj-11", 0 ],
                    "source": [ "obj-16", 0 ]
                }
            },
            {
                "patchline": {
                    "destination": [ "obj-33", 0 ],
                    "order": 1,
                    "source": [ "obj-17", 0 ]
                }
            },
            {
                "patchline": {
                    "destination": [ "obj-34", 0 ],
                    "order": 0,
                    "source": [ "obj-17", 0 ]
                }
            },
            {
                "patchline": {
                    "destination": [ "obj-31", 1 ],
                    "source": [ "obj-18", 3 ]
                }
            },
            {
                "patchline": {
                    "destination": [ "obj-31", 0 ],
                    "source": [ "obj-18", 2 ]
                }
            },
            {
                "patchline": {
                    "destination": [ "obj-4", 4 ],
                    "source": [ "obj-18", 5 ]
                }
            },
            {
                "patchline": {
                    "destination": [ "obj-10", 0 ],
                    "hidden": 1,
                    "order": 0,
                    "source": [ "obj-183", 0 ]
                }
            },
            {
                "patchline": {
                    "destination": [ "obj-12", 0 ],
                    "hidden": 1,
                    "order": 1,
                    "source": [ "obj-183", 0 ]
                }
            },
            {
                "patchline": {
                    "destination": [ "obj-18", 0 ],
                    "hidden": 1,
                    "order": 3,
                    "source": [ "obj-183", 0 ]
                }
            },
            {
                "patchline": {
                    "destination": [ "obj-4", 0 ],
                    "hidden": 1,
                    "order": 2,
                    "source": [ "obj-183", 0 ]
                }
            },
            {
                "patchline": {
                    "destination": [ "obj-183", 0 ],
                    "hidden": 1,
                    "source": [ "obj-188", 0 ]
                }
            },
            {
                "patchline": {
                    "destination": [ "obj-9", 0 ],
                    "source": [ "obj-2", 0 ]
                }
            },
            {
                "patchline": {
                    "destination": [ "obj-10", 0 ],
                    "hidden": 1,
                    "order": 0,
                    "source": [ "obj-26", 0 ]
                }
            },
            {
                "patchline": {
                    "destination": [ "obj-12", 0 ],
                    "hidden": 1,
                    "order": 1,
                    "source": [ "obj-26", 0 ]
                }
            },
            {
                "patchline": {
                    "destination": [ "obj-18", 0 ],
                    "hidden": 1,
                    "order": 3,
                    "source": [ "obj-26", 0 ]
                }
            },
            {
                "patchline": {
                    "destination": [ "obj-4", 0 ],
                    "hidden": 1,
                    "order": 2,
                    "source": [ "obj-26", 0 ]
                }
            },
            {
                "patchline": {
                    "destination": [ "obj-30", 0 ],
                    "source": [ "obj-31", 0 ]
                }
            },
            {
                "patchline": {
                    "destination": [ "obj-18", 0 ],
                    "source": [ "obj-33", 0 ]
                }
            },
            {
                "patchline": {
                    "destination": [ "obj-18", 1 ],
                    "source": [ "obj-34", 0 ]
                }
            },
            {
                "patchline": {
                    "destination": [ "obj-7", 0 ],
                    "source": [ "obj-36", 0 ]
                }
            },
            {
                "patchline": {
                    "destination": [ "obj-9", 0 ],
                    "source": [ "obj-37", 0 ]
                }
            },
            {
                "patchline": {
                    "destination": [ "obj-12", 4 ],
                    "source": [ "obj-4", 5 ]
                }
            },
            {
                "patchline": {
                    "destination": [ "obj-2", 0 ],
                    "source": [ "obj-5", 0 ]
                }
            },
            {
                "patchline": {
                    "destination": [ "obj-10", 0 ],
                    "source": [ "obj-8", 3 ]
                }
            },
            {
                "patchline": {
                    "destination": [ "obj-12", 0 ],
                    "source": [ "obj-8", 2 ]
                }
            },
            {
                "patchline": {
                    "destination": [ "obj-18", 0 ],
                    "source": [ "obj-8", 0 ]
                }
            },
            {
                "patchline": {
                    "destination": [ "obj-4", 0 ],
                    "source": [ "obj-8", 1 ]
                }
            },
            {
                "patchline": {
                    "destination": [ "obj-13", 7 ],
                    "source": [ "obj-9", 7 ]
                }
            },
            {
                "patchline": {
                    "destination": [ "obj-13", 6 ],
                    "source": [ "obj-9", 6 ]
                }
            },
            {
                "patchline": {
                    "destination": [ "obj-13", 5 ],
                    "source": [ "obj-9", 5 ]
                }
            },
            {
                "patchline": {
                    "destination": [ "obj-13", 4 ],
                    "source": [ "obj-9", 4 ]
                }
            },
            {
                "patchline": {
                    "destination": [ "obj-13", 3 ],
                    "source": [ "obj-9", 3 ]
                }
            },
            {
                "patchline": {
                    "destination": [ "obj-13", 2 ],
                    "source": [ "obj-9", 2 ]
                }
            },
            {
                "patchline": {
                    "destination": [ "obj-13", 1 ],
                    "source": [ "obj-9", 1 ]
                }
            },
            {
                "patchline": {
                    "destination": [ "obj-13", 0 ],
                    "source": [ "obj-9", 0 ]
                }
            }
        ],
        "parameters": {
            "obj-188": [ "live.slider[1]", "live.slider", 0 ],
            "parameterbanks": {
                "0": {
                    "index": 0,
                    "name": "",
                    "parameters": [ "-", "-", "-", "-", "-", "-", "-", "-" ],
                    "buttons": [ "-", "-", "-", "-", "-", "-", "-", "-" ]
                }
            },
            "inherited_shortname": 1
        },
        "autosave": 0
    }
}