{
	"patcher" : 	{
		"fileversion" : 1,
		"appversion" : 		{
			"major" : 6,
			"minor" : 1,
			"revision" : 8,
			"architecture" : "x86"
		}
,
		"rect" : [ 259.0, 44.0, 600.0, 664.0 ],
		"bgcolor" : [ 0.9, 0.9, 0.9, 1.0 ],
		"bglocked" : 0,
		"openinpresentation" : 0,
		"default_fontsize" : 12.0,
		"default_fontface" : 0,
		"default_fontname" : "Arial",
		"gridonopen" : 0,
		"gridsize" : [ 15.0, 15.0 ],
		"gridsnaponopen" : 0,
		"statusbarvisible" : 2,
		"toolbarvisible" : 1,
		"boxanimatetime" : 200,
		"imprint" : 0,
		"enablehscroll" : 1,
		"enablevscroll" : 1,
		"devicewidth" : 0.0,
		"description" : "",
		"digest" : "",
		"tags" : "",
		"boxes" : [ 			{
				"box" : 				{
					"fontname" : "Arial",
					"fontsize" : 12.0,
					"id" : "obj-6",
					"maxclass" : "newobj",
					"numinlets" : 1,
					"numoutlets" : 0,
					"patching_rect" : [ 479.0, 585.0, 72.209999, 20.0 ],
					"text" : "out 2 imag"
				}

			}
, 			{
				"box" : 				{
					"fontname" : "Arial",
					"fontsize" : 12.0,
					"id" : "obj-7",
					"maxclass" : "newobj",
					"numinlets" : 1,
					"numoutlets" : 0,
					"patching_rect" : [ 13.0, 585.0, 74.230003, 20.0 ],
					"text" : "out 1 real"
				}

			}
, 			{
				"box" : 				{
					"code" : "// two-pole, two-zero biquad filter (transposed direct form 2)\nbiquadTdf2(x, a0, a1, a2, b1, b2) {\n\r\n\tHistory x1(0), x2(0);\n\r\n\ty = (x * a0) + x2;\n\tx2 = ((x * a1) - (y * b1)) + x1;\n\tx1 = (x * a2) - (y * b2);\n\r\n\treturn y;\n}\r\n\r\n// polyphase IIR filter\npolyphaseIIR(y0) {\r\n\t// one sample delay\n\tHistory x0(0);\r\n\t// first phase allpass cascade\r\n\tx1 = biquadTdf2(x0, 0.479401,\t0., -1., 0.,\t-0.479401);\n\tx2 = biquadTdf2(x1, 0.876218,\t0., -1., 0.,\t-0.876218);\n\tx3 = biquadTdf2(x2, 0.976599,\t0., -1., 0.,\t-0.976599);\n\tx4 = biquadTdf2(x3, 0.9975,\t\t0., -1., 0.,\t-0.9975);\n\t// second phase allpass cascade\n\ty1 = biquadTdf2(y0, 0.161758,\t0., -1., 0.,\t-0.161758);\n\ty2 = biquadTdf2(y1, 0.733029,\t0., -1., 0.,\t-0.733029);\n\ty3 = biquadTdf2(y2, 0.94535,\t0., -1., 0.,\t-0.94535);\n\ty4 = biquadTdf2(y3, 0.990598,\t0., -1., 0.,\t-0.990598);\n\t// update\r\n\tx0 = y0;\r\n\t// real, imaginary\n\treturn x4, y4;\r\n}\r\n// x = in1;\t\t\t\t\t\t // audio in\r\nr, i = polyphaseIIR(in1);\t\nout1 = r;\r\nout2 = i;\r\n\r\n",
					"fontname" : "Arial",
					"fontsize" : 12.0,
					"id" : "obj-5",
					"maxclass" : "codebox",
					"numinlets" : 1,
					"numoutlets" : 2,
					"outlettype" : [ "", "" ],
					"patching_rect" : [ 13.0, 48.0, 485.0, 528.0 ]
				}

			}
, 			{
				"box" : 				{
					"fontname" : "Arial",
					"fontsize" : 12.0,
					"id" : "obj-1",
					"maxclass" : "newobj",
					"numinlets" : 0,
					"numoutlets" : 1,
					"outlettype" : [ "" ],
					"patching_rect" : [ 13.0, 21.0, 63.0, 20.0 ],
					"text" : "in 1 signal"
				}

			}
, 			{
				"box" : 				{
					"fontname" : "Arial",
					"fontsize" : 12.0,
					"id" : "obj-4",
					"maxclass" : "newobj",
					"numinlets" : 1,
					"numoutlets" : 0,
					"patching_rect" : [ 50.0, 424.0, 37.0, 20.0 ],
					"text" : "out 1"
				}

			}
 ],
		"lines" : [ 			{
				"patchline" : 				{
					"destination" : [ "obj-5", 0 ],
					"disabled" : 0,
					"hidden" : 0,
					"source" : [ "obj-1", 0 ]
				}

			}
, 			{
				"patchline" : 				{
					"destination" : [ "obj-6", 0 ],
					"disabled" : 0,
					"hidden" : 0,
					"source" : [ "obj-5", 1 ]
				}

			}
, 			{
				"patchline" : 				{
					"destination" : [ "obj-7", 0 ],
					"disabled" : 0,
					"hidden" : 0,
					"source" : [ "obj-5", 0 ]
				}

			}
 ]
	}

}
