{
	"patcher" : 	{
		"fileversion" : 1,
		"appversion" : 		{
			"major" : 9,
			"minor" : 0,
			"revision" : 7,
			"architecture" : "x64",
			"modernui" : 1
		}
,
		"classnamespace" : "box",
		"rect" : [ 948.0, 147.0, 474.0, 562.0 ],
		"openinpresentation" : 1,
		"gridsize" : [ 15.0, 15.0 ],
		"boxes" : [ 			{
				"box" : 				{
					"id" : "obj-13",
					"maxclass" : "newobj",
					"numinlets" : 1,
					"numoutlets" : 1,
					"outlettype" : [ "" ],
					"patching_rect" : [ 74.0, 41.0, 92.0, 22.0 ],
					"text" : "loadmess 8",
					"varname" : "u909009510[1]"
				}

			}
, 			{
				"box" : 				{
					"bgcolor" : [ 0.905882352941176, 0.905882352941176, 0.905882352941176, 0.0 ],
					"fontname" : "Arial",
					"fontsize" : 10.0,
					"id" : "obj-8",
					"maxclass" : "comment",
					"numinlets" : 1,
					"numoutlets" : 0,
					"patching_rect" : [ 290.0, 106.0, 26.0, 18.0 ],
					"presentation" : 1,
					"presentation_rect" : [ 84.0, 14.0, 17.0, 18.0 ],
					"text" : "8",
					"textcolor" : [ 0.63921568627451, 0.776470588235294, 0.764705882352941, 0.4 ]
				}

			}
, 			{
				"box" : 				{
					"bgcolor" : [ 0.905882352941176, 0.905882352941176, 0.905882352941176, 0.0 ],
					"fontname" : "Arial",
					"fontsize" : 10.0,
					"id" : "obj-7",
					"maxclass" : "comment",
					"numinlets" : 1,
					"numoutlets" : 0,
					"patching_rect" : [ 278.0, 106.0, 26.0, 18.0 ],
					"presentation" : 1,
					"presentation_rect" : [ 72.0, 14.0, 17.0, 18.0 ],
					"text" : "7",
					"textcolor" : [ 0.63921568627451, 0.776470588235294, 0.764705882352941, 0.4 ]
				}

			}
, 			{
				"box" : 				{
					"bgcolor" : [ 0.905882352941176, 0.905882352941176, 0.905882352941176, 0.0 ],
					"fontname" : "Arial",
					"fontsize" : 10.0,
					"id" : "obj-6",
					"maxclass" : "comment",
					"numinlets" : 1,
					"numoutlets" : 0,
					"patching_rect" : [ 266.0, 106.0, 26.0, 18.0 ],
					"presentation" : 1,
					"presentation_rect" : [ 60.0, 14.0, 17.0, 18.0 ],
					"text" : "6",
					"textcolor" : [ 0.63921568627451, 0.776470588235294, 0.764705882352941, 0.4 ]
				}

			}
, 			{
				"box" : 				{
					"bgcolor" : [ 0.905882352941176, 0.905882352941176, 0.905882352941176, 0.0 ],
					"fontname" : "Arial",
					"fontsize" : 10.0,
					"id" : "obj-5",
					"maxclass" : "comment",
					"numinlets" : 1,
					"numoutlets" : 0,
					"patching_rect" : [ 254.0, 106.0, 26.0, 18.0 ],
					"presentation" : 1,
					"presentation_rect" : [ 48.0, 14.0, 17.0, 18.0 ],
					"text" : "5",
					"textcolor" : [ 0.63921568627451, 0.776470588235294, 0.764705882352941, 0.4 ]
				}

			}
, 			{
				"box" : 				{
					"bgcolor" : [ 0.905882352941176, 0.905882352941176, 0.905882352941176, 0.0 ],
					"fontname" : "Arial",
					"fontsize" : 10.0,
					"id" : "obj-4",
					"maxclass" : "comment",
					"numinlets" : 1,
					"numoutlets" : 0,
					"patching_rect" : [ 242.0, 106.0, 26.0, 18.0 ],
					"presentation" : 1,
					"presentation_rect" : [ 36.0, 14.0, 17.0, 18.0 ],
					"text" : "4",
					"textcolor" : [ 0.63921568627451, 0.776470588235294, 0.764705882352941, 0.4 ]
				}

			}
, 			{
				"box" : 				{
					"bgcolor" : [ 0.905882352941176, 0.905882352941176, 0.905882352941176, 0.0 ],
					"fontname" : "Arial",
					"fontsize" : 10.0,
					"id" : "obj-3",
					"maxclass" : "comment",
					"numinlets" : 1,
					"numoutlets" : 0,
					"patching_rect" : [ 230.0, 106.0, 26.0, 18.0 ],
					"presentation" : 1,
					"presentation_rect" : [ 24.0, 14.0, 17.0, 18.0 ],
					"text" : "3",
					"textcolor" : [ 0.63921568627451, 0.776470588235294, 0.764705882352941, 0.4 ]
				}

			}
, 			{
				"box" : 				{
					"bgcolor" : [ 0.905882352941176, 0.905882352941176, 0.905882352941176, 0.0 ],
					"fontname" : "Arial",
					"fontsize" : 10.0,
					"id" : "obj-2",
					"maxclass" : "comment",
					"numinlets" : 1,
					"numoutlets" : 0,
					"patching_rect" : [ 212.0, 106.0, 26.0, 18.0 ],
					"presentation" : 1,
					"presentation_rect" : [ 12.0, 14.0, 17.0, 18.0 ],
					"text" : "2",
					"textcolor" : [ 0.63921568627451, 0.776470588235294, 0.764705882352941, 0.4 ]
				}

			}
, 			{
				"box" : 				{
					"bgcolor" : [ 0.905882352941176, 0.905882352941176, 0.905882352941176, 0.0 ],
					"fontname" : "Arial",
					"fontsize" : 10.0,
					"id" : "obj-1",
					"maxclass" : "comment",
					"numinlets" : 1,
					"numoutlets" : 0,
					"patching_rect" : [ 194.0, 106.0, 18.0, 18.0 ],
					"presentation" : 1,
					"presentation_rect" : [ 0.0, 14.0, 17.0, 18.0 ],
					"text" : "1",
					"textcolor" : [ 0.63921568627451, 0.776470588235294, 0.764705882352941, 0.4 ]
				}

			}
, 			{
				"box" : 				{
					"bgcolor" : [ 0.905882352941176, 0.905882352941176, 0.905882352941176, 0.0 ],
					"fontname" : "Arial",
					"fontsize" : 10.0,
					"id" : "obj-30",
					"maxclass" : "comment",
					"numinlets" : 1,
					"numoutlets" : 0,
					"patching_rect" : [ 364.0, 222.0, 47.0, 18.0 ],
					"presentation" : 1,
					"presentation_rect" : [ 94.0, 97.0, 36.0, 18.0 ],
					"text" : "bus7",
					"textcolor" : [ 0.63921568627451, 0.776470588235294, 0.764705882352941, 0.4 ]
				}

			}
, 			{
				"box" : 				{
					"bgcolor" : [ 0.905882352941176, 0.905882352941176, 0.905882352941176, 0.0 ],
					"fontname" : "Arial",
					"fontsize" : 10.0,
					"id" : "obj-29",
					"maxclass" : "comment",
					"numinlets" : 1,
					"numoutlets" : 0,
					"patching_rect" : [ 353.0, 202.0, 47.0, 18.0 ],
					"presentation" : 1,
					"presentation_rect" : [ 94.0, 85.0, 36.0, 18.0 ],
					"text" : "bus6",
					"textcolor" : [ 0.63921568627451, 0.776470588235294, 0.764705882352941, 0.4 ]
				}

			}
, 			{
				"box" : 				{
					"bgcolor" : [ 0.905882352941176, 0.905882352941176, 0.905882352941176, 0.0 ],
					"fontname" : "Arial",
					"fontsize" : 10.0,
					"id" : "obj-28",
					"maxclass" : "comment",
					"numinlets" : 1,
					"numoutlets" : 0,
					"patching_rect" : [ 341.0, 189.0, 47.0, 18.0 ],
					"presentation" : 1,
					"presentation_rect" : [ 94.0, 73.0, 36.0, 18.0 ],
					"text" : "bus5",
					"textcolor" : [ 0.63921568627451, 0.776470588235294, 0.764705882352941, 0.4 ]
				}

			}
, 			{
				"box" : 				{
					"bgcolor" : [ 0.905882352941176, 0.905882352941176, 0.905882352941176, 0.0 ],
					"fontname" : "Arial",
					"fontsize" : 10.0,
					"id" : "obj-27",
					"maxclass" : "comment",
					"numinlets" : 1,
					"numoutlets" : 0,
					"patching_rect" : [ 328.0, 169.0, 47.0, 18.0 ],
					"presentation" : 1,
					"presentation_rect" : [ 94.0, 61.0, 36.0, 18.0 ],
					"text" : "bus4",
					"textcolor" : [ 0.63921568627451, 0.776470588235294, 0.764705882352941, 0.4 ]
				}

			}
, 			{
				"box" : 				{
					"bgcolor" : [ 0.905882352941176, 0.905882352941176, 0.905882352941176, 0.0 ],
					"fontname" : "Arial",
					"fontsize" : 10.0,
					"id" : "obj-26",
					"maxclass" : "comment",
					"numinlets" : 1,
					"numoutlets" : 0,
					"patching_rect" : [ 320.0, 157.0, 55.0, 18.0 ],
					"presentation" : 1,
					"presentation_rect" : [ 94.0, 49.0, 36.0, 18.0 ],
					"text" : "bus3",
					"textcolor" : [ 0.63921568627451, 0.776470588235294, 0.764705882352941, 0.4 ]
				}

			}
, 			{
				"box" : 				{
					"bgcolor" : [ 0.905882352941176, 0.905882352941176, 0.905882352941176, 0.0 ],
					"fontname" : "Arial",
					"fontsize" : 10.0,
					"id" : "obj-25",
					"maxclass" : "comment",
					"numinlets" : 1,
					"numoutlets" : 0,
					"patching_rect" : [ 307.0, 144.0, 47.0, 18.0 ],
					"presentation" : 1,
					"presentation_rect" : [ 94.0, 37.0, 36.0, 18.0 ],
					"text" : "bus2",
					"textcolor" : [ 0.63921568627451, 0.776470588235294, 0.764705882352941, 0.4 ]
				}

			}
, 			{
				"box" : 				{
					"bgcolor" : [ 0.905882352941176, 0.905882352941176, 0.905882352941176, 0.0 ],
					"fontname" : "Arial",
					"fontsize" : 10.0,
					"id" : "obj-24",
					"maxclass" : "comment",
					"numinlets" : 1,
					"numoutlets" : 0,
					"patching_rect" : [ 375.0, 242.0, 47.0, 18.0 ],
					"presentation" : 1,
					"presentation_rect" : [ 94.0, 109.0, 36.0, 18.0 ],
					"text" : "bus8",
					"textcolor" : [ 0.63921568627451, 0.776470588235294, 0.764705882352941, 0.4 ]
				}

			}
, 			{
				"box" : 				{
					"bgcolor" : [ 0.905882352941176, 0.905882352941176, 0.905882352941176, 0.0 ],
					"fontname" : "Arial",
					"fontsize" : 10.0,
					"id" : "obj-23",
					"maxclass" : "comment",
					"numinlets" : 1,
					"numoutlets" : 0,
					"patching_rect" : [ 297.0, 131.0, 47.0, 18.0 ],
					"presentation" : 1,
					"presentation_rect" : [ 94.0, 24.0, 36.0, 18.0 ],
					"text" : "bus1",
					"textcolor" : [ 0.63921568627451, 0.776470588235294, 0.764705882352941, 0.4 ]
				}

			}
, 			{
				"box" : 				{
					"comment" : "",
					"id" : "obj-11",
					"index" : 0,
					"maxclass" : "outlet",
					"numinlets" : 1,
					"numoutlets" : 0,
					"patching_rect" : [ 87.0, 396.0, 30.0, 30.0 ]
				}

			}
, 			{
				"box" : 				{
					"fontsize" : 9.0,
					"id" : "obj-12",
					"maxclass" : "live.tab",
					"num_lines_patching" : 1,
					"num_lines_presentation" : 1,
					"numinlets" : 1,
					"numoutlets" : 3,
					"outlettype" : [ "", "", "float" ],
					"parameter_enable" : 1,
					"patching_rect" : [ 222.0, 167.0, 64.0, 21.0 ],
					"saved_attribute_attributes" : 					{
						"valueof" : 						{
							"parameter_enum" : [ "switch", "dial" ],
							"parameter_longname" : "live.tab",
							"parameter_mmax" : 1,
							"parameter_modmode" : 0,
							"parameter_shortname" : "live.tab",
							"parameter_type" : 2,
							"parameter_unitstyle" : 9
						}

					}
,
					"spacing_x" : 3.0,
					"varname" : "dial-mode"
				}

			}
, 			{
				"box" : 				{
					"id" : "obj-10",
					"maxclass" : "newobj",
					"numinlets" : 1,
					"numoutlets" : 4,
					"outlettype" : [ "", "", "", "" ],
					"patching_rect" : [ 203.5, 41.0, 69.0, 22.0 ],
					"restore" : 					{
						"ch-matrix" : [ 0, 0, 1.0, 1, 1, 1.0, 2, 2, 1.0, 3, 3, 1.0, 4, 4, 1.0, 5, 5, 1.0, 6, 6, 1.0, 7, 7, 1.0 ],
						"dial-mode" : [ 0.0 ]
					}
,
					"text" : "autopattr",
					"varname" : "u909009510"
				}

			}
, 			{
				"box" : 				{
					"id" : "obj-9",
					"linecolor" : [ 0.423529411764706, 0.47843137254902, 0.498039215686275, 1.0 ],
					"maxclass" : "live.line",
					"numinlets" : 1,
					"numoutlets" : 0,
					"patching_rect" : [ 261.0, 286.0, 5.0, 100.0 ],
					"presentation" : 1,
					"presentation_rect" : [ 1.0, 18.0, 6.0, 84.0 ],
					"saved_attribute_attributes" : 					{
						"linecolor" : 						{
							"expression" : ""
						}

					}

				}

			}
, 			{
				"box" : 				{
					"id" : "obj-119",
					"maxclass" : "newobj",
					"numinlets" : 2,
					"numoutlets" : 1,
					"outlettype" : [ "int" ],
					"patching_rect" : [ 222.0, 200.0, 32.0, 22.0 ],
					"text" : "* 2"
				}

			}
, 			{
				"box" : 				{
					"id" : "obj-116",
					"maxclass" : "message",
					"numinlets" : 2,
					"numoutlets" : 1,
					"outlettype" : [ "" ],
					"patching_rect" : [ 222.0, 230.0, 82.0, 22.0 ],
					"text" : "dialmode $1"
				}

			}
, 			{
				"box" : 				{
					"id" : "obj-82",
					"maxclass" : "live.button",
					"numinlets" : 1,
					"numoutlets" : 1,
					"outlettype" : [ "" ],
					"parameter_enable" : 1,
					"patching_rect" : [ 87.0, 110.0, 17.0, 17.0 ],
					"presentation" : 1,
					"presentation_rect" : [ 3.0, 1.0, 17.0, 17.0 ],
					"saved_attribute_attributes" : 					{
						"valueof" : 						{
							"parameter_enum" : [ "off", "on" ],
							"parameter_longname" : "live.button[20]",
							"parameter_mmax" : 1,
							"parameter_modmode" : 0,
							"parameter_shortname" : "live.button",
							"parameter_type" : 2
						}

					}
,
					"varname" : "live.button[2]"
				}

			}
, 			{
				"box" : 				{
					"fontsize" : 10.0,
					"id" : "obj-78",
					"maxclass" : "comment",
					"numinlets" : 1,
					"numoutlets" : 0,
					"patching_rect" : [ 102.0, 109.0, 64.0, 18.0 ],
					"presentation" : 1,
					"presentation_rect" : [ 19.0, 0.0, 64.0, 18.0 ],
					"text" : "route default"
				}

			}
, 			{
				"box" : 				{
					"comment" : "",
					"id" : "obj-76",
					"index" : 0,
					"maxclass" : "inlet",
					"numinlets" : 0,
					"numoutlets" : 1,
					"outlettype" : [ "" ],
					"patching_rect" : [ 19.0, 61.0, 28.0, 28.0 ]
				}

			}
, 			{
				"box" : 				{
					"color" : [ 0.831372549019608, 0.666666666666667, 0.235294117647059, 1.0 ],
					"elementcolor" : [ 0.686274509803922, 0.815686274509804, 0.780392156862745, 0.24 ],
					"horizontalmargin" : 0,
					"id" : "obj-31",
					"maxclass" : "matrixctrl",
					"numinlets" : 1,
					"numoutlets" : 2,
					"outlettype" : [ "list", "list" ],
					"parameter_enable" : 0,
					"patching_rect" : [ 87.0, 277.0, 96.0, 96.0 ],
					"presentation" : 1,
					"presentation_rect" : [ 1.0, 28.0, 96.0, 96.0 ],
					"rows" : 8,
					"varname" : "ch-matrix",
					"verticalmargin" : 0
				}

			}
, 			{
				"box" : 				{
					"id" : "obj-80",
					"maxclass" : "newobj",
					"numinlets" : 2,
					"numoutlets" : 1,
					"outlettype" : [ "int" ],
					"patching_rect" : [ 87.0, 155.0, 42.0, 22.0 ],
					"text" : "i"
				}

			}
, 			{
				"box" : 				{
					"bubblesize" : 7,
					"id" : "obj-62",
					"maxclass" : "preset",
					"numinlets" : 1,
					"numoutlets" : 5,
					"outlettype" : [ "preset", "int", "preset", "int", "" ],
					"patching_rect" : [ 87.0, 192.0, 92.0, 15.0 ],
					"preset_data" : [ 						{
							"number" : 1,
							"data" : [ 196, "obj-31", "matrixctrl", "list", 0, 0, 1.0, 0, 1, 1.0, 0, 2, 1.0, 0, 3, 1.0, 0, 4, 1.0, 0, 5, 1.0, 0, 6, 1.0, 0, 7, 1.0, 1, 0, 0.0, 1, 1, 0.0, 1, 2, 0.0, 1, 3, 0.0, 1, 4, 0.0, 1, 5, 0.0, 1, 6, 0.0, 1, 7, 0.0, 2, 0, 0.0, 2, 1, 0.0, 2, 2, 0.0, 2, 3, 0.0, 2, 4, 0.0, 2, 5, 0.0, 2, 6, 0.0, 2, 7, 0.0, 3, 0, 0.0, 3, 1, 0.0, 3, 2, 0.0, 3, 3, 0.0, 3, 4, 0.0, 3, 5, 0.0, 3, 6, 0.0, 3, 7, 0.0, 4, 0, 0.0, 4, 1, 0.0, 4, 2, 0.0, 4, 3, 0.0, 4, 4, 0.0, 4, 5, 0.0, 4, 6, 0.0, 4, 7, 0.0, 5, 0, 0.0, 5, 1, 0.0, 5, 2, 0.0, 5, 3, 0.0, 5, 4, 0.0, 5, 5, 0.0, 5, 6, 0.0, 5, 7, 0.0, 6, 0, 0.0, 6, 1, 0.0, 6, 2, 0.0, 6, 3, 0.0, 6, 4, 0.0, 6, 5, 0.0, 6, 6, 0.0, 6, 7, 0.0, 7, 0, 0.0, 7, 1, 0.0, 7, 2, 0.0, 7, 3, 0.0, 7, 4, 0.0, 7, 5, 0.0, 7, 6, 0.0, 7, 7, 0.0 ]
						}
, 						{
							"number" : 2,
							"data" : [ 196, "obj-31", "matrixctrl", "list", 0, 0, 1.0, 0, 1, 0.0, 0, 2, 1.0, 0, 3, 0.0, 0, 4, 1.0, 0, 5, 0.0, 0, 6, 1.0, 0, 7, 0.0, 1, 0, 0.0, 1, 1, 1.0, 1, 2, 0.0, 1, 3, 1.0, 1, 4, 0.0, 1, 5, 1.0, 1, 6, 0.0, 1, 7, 1.0, 2, 0, 0.0, 2, 1, 0.0, 2, 2, 0.0, 2, 3, 0.0, 2, 4, 0.0, 2, 5, 0.0, 2, 6, 0.0, 2, 7, 0.0, 3, 0, 0.0, 3, 1, 0.0, 3, 2, 0.0, 3, 3, 0.0, 3, 4, 0.0, 3, 5, 0.0, 3, 6, 0.0, 3, 7, 0.0, 4, 0, 0.0, 4, 1, 0.0, 4, 2, 0.0, 4, 3, 0.0, 4, 4, 0.0, 4, 5, 0.0, 4, 6, 0.0, 4, 7, 0.0, 5, 0, 0.0, 5, 1, 0.0, 5, 2, 0.0, 5, 3, 0.0, 5, 4, 0.0, 5, 5, 0.0, 5, 6, 0.0, 5, 7, 0.0, 6, 0, 0.0, 6, 1, 0.0, 6, 2, 0.0, 6, 3, 0.0, 6, 4, 0.0, 6, 5, 0.0, 6, 6, 0.0, 6, 7, 0.0, 7, 0, 0.0, 7, 1, 0.0, 7, 2, 0.0, 7, 3, 0.0, 7, 4, 0.0, 7, 5, 0.0, 7, 6, 0.0, 7, 7, 0.0 ]
						}
, 						{
							"number" : 3,
							"data" : [ 196, "obj-31", "matrixctrl", "list", 0, 0, 1.0, 0, 1, 0.0, 0, 2, 0.0, 0, 3, 1.0, 0, 4, 0.0, 0, 5, 0.0, 0, 6, 1.0, 0, 7, 0.0, 1, 0, 0.0, 1, 1, 1.0, 1, 2, 0.0, 1, 3, 0.0, 1, 4, 1.0, 1, 5, 0.0, 1, 6, 0.0, 1, 7, 1.0, 2, 0, 0.0, 2, 1, 0.0, 2, 2, 1.0, 2, 3, 0.0, 2, 4, 0.0, 2, 5, 1.0, 2, 6, 0.0, 2, 7, 0.0, 3, 0, 0.0, 3, 1, 0.0, 3, 2, 0.0, 3, 3, 0.0, 3, 4, 0.0, 3, 5, 0.0, 3, 6, 0.0, 3, 7, 0.0, 4, 0, 0.0, 4, 1, 0.0, 4, 2, 0.0, 4, 3, 0.0, 4, 4, 0.0, 4, 5, 0.0, 4, 6, 0.0, 4, 7, 0.0, 5, 0, 0.0, 5, 1, 0.0, 5, 2, 0.0, 5, 3, 0.0, 5, 4, 0.0, 5, 5, 0.0, 5, 6, 0.0, 5, 7, 0.0, 6, 0, 0.0, 6, 1, 0.0, 6, 2, 0.0, 6, 3, 0.0, 6, 4, 0.0, 6, 5, 0.0, 6, 6, 0.0, 6, 7, 0.0, 7, 0, 0.0, 7, 1, 0.0, 7, 2, 0.0, 7, 3, 0.0, 7, 4, 0.0, 7, 5, 0.0, 7, 6, 0.0, 7, 7, 0.0 ]
						}
, 						{
							"number" : 4,
							"data" : [ 196, "obj-31", "matrixctrl", "list", 0, 0, 1.0, 0, 1, 0.0, 0, 2, 0.0, 0, 3, 0.0, 0, 4, 1.0, 0, 5, 0.0, 0, 6, 0.0, 0, 7, 0.0, 1, 0, 0.0, 1, 1, 1.0, 1, 2, 0.0, 1, 3, 0.0, 1, 4, 0.0, 1, 5, 1.0, 1, 6, 0.0, 1, 7, 0.0, 2, 0, 0.0, 2, 1, 0.0, 2, 2, 1.0, 2, 3, 0.0, 2, 4, 0.0, 2, 5, 0.0, 2, 6, 1.0, 2, 7, 0.0, 3, 0, 0.0, 3, 1, 0.0, 3, 2, 0.0, 3, 3, 1.0, 3, 4, 0.0, 3, 5, 0.0, 3, 6, 0.0, 3, 7, 1.0, 4, 0, 0.0, 4, 1, 0.0, 4, 2, 0.0, 4, 3, 0.0, 4, 4, 0.0, 4, 5, 0.0, 4, 6, 0.0, 4, 7, 0.0, 5, 0, 0.0, 5, 1, 0.0, 5, 2, 0.0, 5, 3, 0.0, 5, 4, 0.0, 5, 5, 0.0, 5, 6, 0.0, 5, 7, 0.0, 6, 0, 0.0, 6, 1, 0.0, 6, 2, 0.0, 6, 3, 0.0, 6, 4, 0.0, 6, 5, 0.0, 6, 6, 0.0, 6, 7, 0.0, 7, 0, 0.0, 7, 1, 0.0, 7, 2, 0.0, 7, 3, 0.0, 7, 4, 0.0, 7, 5, 0.0, 7, 6, 0.0, 7, 7, 0.0 ]
						}
, 						{
							"number" : 5,
							"data" : [ 196, "obj-31", "matrixctrl", "list", 0, 0, 1.0, 0, 1, 0.0, 0, 2, 0.0, 0, 3, 0.0, 0, 4, 0.0, 0, 5, 1.0, 0, 6, 0.0, 0, 7, 0.0, 1, 0, 0.0, 1, 1, 1.0, 1, 2, 0.0, 1, 3, 0.0, 1, 4, 0.0, 1, 5, 0.0, 1, 6, 0.0, 1, 7, 0.0, 2, 0, 0.0, 2, 1, 0.0, 2, 2, 1.0, 2, 3, 0.0, 2, 4, 0.0, 2, 5, 0.0, 2, 6, 1.0, 2, 7, 0.0, 3, 0, 0.0, 3, 1, 0.0, 3, 2, 0.0, 3, 3, 1.0, 3, 4, 0.0, 3, 5, 0.0, 3, 6, 0.0, 3, 7, 0.0, 4, 0, 0.0, 4, 1, 0.0, 4, 2, 0.0, 4, 3, 0.0, 4, 4, 1.0, 4, 5, 0.0, 4, 6, 0.0, 4, 7, 1.0, 5, 0, 0.0, 5, 1, 0.0, 5, 2, 0.0, 5, 3, 0.0, 5, 4, 0.0, 5, 5, 0.0, 5, 6, 0.0, 5, 7, 0.0, 6, 0, 0.0, 6, 1, 0.0, 6, 2, 0.0, 6, 3, 0.0, 6, 4, 0.0, 6, 5, 0.0, 6, 6, 0.0, 6, 7, 0.0, 7, 0, 0.0, 7, 1, 0.0, 7, 2, 0.0, 7, 3, 0.0, 7, 4, 0.0, 7, 5, 0.0, 7, 6, 0.0, 7, 7, 0.0 ]
						}
, 						{
							"number" : 6,
							"data" : [ 196, "obj-31", "matrixctrl", "list", 0, 0, 1.0, 0, 1, 0.0, 0, 2, 0.0, 0, 3, 0.0, 0, 4, 0.0, 0, 5, 0.0, 0, 6, 0.0, 0, 7, 0.0, 1, 0, 0.0, 1, 1, 1.0, 1, 2, 0.0, 1, 3, 0.0, 1, 4, 0.0, 1, 5, 0.0, 1, 6, 1.0, 1, 7, 0.0, 2, 0, 0.0, 2, 1, 0.0, 2, 2, 1.0, 2, 3, 0.0, 2, 4, 0.0, 2, 5, 0.0, 2, 6, 0.0, 2, 7, 0.0, 3, 0, 0.0, 3, 1, 0.0, 3, 2, 0.0, 3, 3, 1.0, 3, 4, 0.0, 3, 5, 0.0, 3, 6, 0.0, 3, 7, 0.0, 4, 0, 0.0, 4, 1, 0.0, 4, 2, 0.0, 4, 3, 0.0, 4, 4, 1.0, 4, 5, 0.0, 4, 6, 0.0, 4, 7, 1.0, 5, 0, 0.0, 5, 1, 0.0, 5, 2, 0.0, 5, 3, 0.0, 5, 4, 0.0, 5, 5, 1.0, 5, 6, 0.0, 5, 7, 0.0, 6, 0, 0.0, 6, 1, 0.0, 6, 2, 0.0, 6, 3, 0.0, 6, 4, 0.0, 6, 5, 0.0, 6, 6, 0.0, 6, 7, 0.0, 7, 0, 0.0, 7, 1, 0.0, 7, 2, 0.0, 7, 3, 0.0, 7, 4, 0.0, 7, 5, 0.0, 7, 6, 0.0, 7, 7, 0.0 ]
						}
, 						{
							"number" : 7,
							"data" : [ 196, "obj-31", "matrixctrl", "list", 0, 0, 1.0, 0, 1, 0.0, 0, 2, 0.0, 0, 3, 0.0, 0, 4, 0.0, 0, 5, 0.0, 0, 6, 0.0, 0, 7, 0.0, 1, 0, 0.0, 1, 1, 1.0, 1, 2, 0.0, 1, 3, 0.0, 1, 4, 0.0, 1, 5, 0.0, 1, 6, 0.0, 1, 7, 0.0, 2, 0, 0.0, 2, 1, 0.0, 2, 2, 1.0, 2, 3, 0.0, 2, 4, 0.0, 2, 5, 0.0, 2, 6, 0.0, 2, 7, 0.0, 3, 0, 0.0, 3, 1, 0.0, 3, 2, 0.0, 3, 3, 1.0, 3, 4, 0.0, 3, 5, 0.0, 3, 6, 0.0, 3, 7, 1.0, 4, 0, 0.0, 4, 1, 0.0, 4, 2, 0.0, 4, 3, 0.0, 4, 4, 1.0, 4, 5, 0.0, 4, 6, 0.0, 4, 7, 0.0, 5, 0, 0.0, 5, 1, 0.0, 5, 2, 0.0, 5, 3, 0.0, 5, 4, 0.0, 5, 5, 1.0, 5, 6, 0.0, 5, 7, 0.0, 6, 0, 0.0, 6, 1, 0.0, 6, 2, 0.0, 6, 3, 0.0, 6, 4, 0.0, 6, 5, 0.0, 6, 6, 1.0, 6, 7, 0.0, 7, 0, 0.0, 7, 1, 0.0, 7, 2, 0.0, 7, 3, 0.0, 7, 4, 0.0, 7, 5, 0.0, 7, 6, 0.0, 7, 7, 0.0 ]
						}
, 						{
							"number" : 8,
							"data" : [ 196, "obj-31", "matrixctrl", "list", 0, 0, 1.0, 0, 1, 0.0, 0, 2, 0.0, 0, 3, 0.0, 0, 4, 0.0, 0, 5, 0.0, 0, 6, 0.0, 0, 7, 0.0, 1, 0, 0.0, 1, 1, 1.0, 1, 2, 0.0, 1, 3, 0.0, 1, 4, 0.0, 1, 5, 0.0, 1, 6, 0.0, 1, 7, 0.0, 2, 0, 0.0, 2, 1, 0.0, 2, 2, 1.0, 2, 3, 0.0, 2, 4, 0.0, 2, 5, 0.0, 2, 6, 0.0, 2, 7, 0.0, 3, 0, 0.0, 3, 1, 0.0, 3, 2, 0.0, 3, 3, 1.0, 3, 4, 0.0, 3, 5, 0.0, 3, 6, 0.0, 3, 7, 0.0, 4, 0, 0.0, 4, 1, 0.0, 4, 2, 0.0, 4, 3, 0.0, 4, 4, 1.0, 4, 5, 0.0, 4, 6, 0.0, 4, 7, 0.0, 5, 0, 0.0, 5, 1, 0.0, 5, 2, 0.0, 5, 3, 0.0, 5, 4, 0.0, 5, 5, 1.0, 5, 6, 0.0, 5, 7, 0.0, 6, 0, 0.0, 6, 1, 0.0, 6, 2, 0.0, 6, 3, 0.0, 6, 4, 0.0, 6, 5, 0.0, 6, 6, 1.0, 6, 7, 0.0, 7, 0, 0.0, 7, 1, 0.0, 7, 2, 0.0, 7, 3, 0.0, 7, 4, 0.0, 7, 5, 0.0, 7, 6, 0.0, 7, 7, 1.0 ]
						}
 ]
				}

			}
, 			{
				"box" : 				{
					"fontsize" : 11.0,
					"id" : "obj-90",
					"maxclass" : "live.numbox",
					"numinlets" : 1,
					"numoutlets" : 2,
					"outlettype" : [ "", "float" ],
					"parameter_enable" : 1,
					"patching_rect" : [ 19.0, 102.0, 47.0, 17.0 ],
					"presentation" : 1,
					"presentation_rect" : [ 96.0, 12.0, 26.5, 17.0 ],
					"saved_attribute_attributes" : 					{
						"valueof" : 						{
							"parameter_linknames" : 1,
							"parameter_longname" : "voice-nr",
							"parameter_mmax" : 8.0,
							"parameter_mmin" : 1.0,
							"parameter_modmode" : 3,
							"parameter_shortname" : "voice-nr",
							"parameter_type" : 0,
							"parameter_unitstyle" : 0
						}

					}
,
					"varname" : "voice-nr"
				}

			}
, 			{
				"box" : 				{
					"id" : "obj-57",
					"maxclass" : "newobj",
					"numinlets" : 1,
					"numoutlets" : 1,
					"outlettype" : [ "" ],
					"patcher" : 					{
						"fileversion" : 1,
						"appversion" : 						{
							"major" : 9,
							"minor" : 0,
							"revision" : 7,
							"architecture" : "x64",
							"modernui" : 1
						}
,
						"classnamespace" : "box",
						"rect" : [ 827.0, 168.0, 409.0, 611.0 ],
						"gridsize" : [ 15.0, 15.0 ],
						"boxes" : [ 							{
								"box" : 								{
									"id" : "obj-1",
									"maxclass" : "newobj",
									"numinlets" : 1,
									"numoutlets" : 2,
									"outlettype" : [ "int", "int" ],
									"patching_rect" : [ 102.0, 190.0, 94.0, 22.0 ],
									"text" : "t i i"
								}

							}
, 							{
								"box" : 								{
									"id" : "obj-38",
									"maxclass" : "newobj",
									"numinlets" : 1,
									"numoutlets" : 2,
									"outlettype" : [ "int", "bang" ],
									"patching_rect" : [ 99.0, 88.0, 100.0, 22.0 ],
									"text" : "t i b"
								}

							}
, 							{
								"box" : 								{
									"fontsize" : 11.0,
									"id" : "obj-35",
									"maxclass" : "newobj",
									"numinlets" : 2,
									"numoutlets" : 1,
									"outlettype" : [ "int" ],
									"patching_rect" : [ 177.0, 219.0, 32.0, 21.0 ],
									"text" : "+ 1"
								}

							}
, 							{
								"box" : 								{
									"fontsize" : 11.0,
									"id" : "obj-30",
									"maxclass" : "message",
									"numinlets" : 2,
									"numoutlets" : 1,
									"outlettype" : [ "" ],
									"patching_rect" : [ 177.0, 348.0, 47.0, 21.0 ],
									"text" : "$2 $1"
								}

							}
, 							{
								"box" : 								{
									"fontsize" : 11.0,
									"id" : "obj-31",
									"maxclass" : "newobj",
									"numinlets" : 1,
									"numoutlets" : 2,
									"outlettype" : [ "bang", "int" ],
									"patching_rect" : [ 177.0, 249.0, 64.0, 21.0 ],
									"text" : "t b i"
								}

							}
, 							{
								"box" : 								{
									"fontsize" : 11.0,
									"id" : "obj-33",
									"maxclass" : "newobj",
									"numinlets" : 2,
									"numoutlets" : 1,
									"outlettype" : [ "" ],
									"patching_rect" : [ 177.0, 317.0, 64.0, 21.0 ],
									"text" : "pack"
								}

							}
, 							{
								"box" : 								{
									"fontsize" : 11.0,
									"id" : "obj-34",
									"maxclass" : "newobj",
									"numinlets" : 2,
									"numoutlets" : 3,
									"outlettype" : [ "bang", "bang", "int" ],
									"patching_rect" : [ 177.0, 280.0, 50.0, 21.0 ],
									"text" : "uzi 8 0"
								}

							}
, 							{
								"box" : 								{
									"fontsize" : 11.0,
									"id" : "obj-29",
									"maxclass" : "newobj",
									"numinlets" : 2,
									"numoutlets" : 1,
									"outlettype" : [ "int" ],
									"patching_rect" : [ 123.0, 153.0, 34.0, 21.0 ],
									"text" : "* 1"
								}

							}
, 							{
								"box" : 								{
									"fontsize" : 11.0,
									"id" : "obj-22",
									"maxclass" : "message",
									"numinlets" : 2,
									"numoutlets" : 1,
									"outlettype" : [ "" ],
									"patching_rect" : [ 260.0, 348.0, 47.0, 21.0 ],
									"text" : "$2 $1"
								}

							}
, 							{
								"box" : 								{
									"fontsize" : 11.0,
									"id" : "obj-23",
									"maxclass" : "newobj",
									"numinlets" : 1,
									"numoutlets" : 2,
									"outlettype" : [ "bang", "int" ],
									"patching_rect" : [ 260.0, 252.0, 64.0, 21.0 ],
									"text" : "t b i"
								}

							}
, 							{
								"box" : 								{
									"fontsize" : 11.0,
									"id" : "obj-24",
									"maxclass" : "newobj",
									"numinlets" : 2,
									"numoutlets" : 1,
									"outlettype" : [ "" ],
									"patching_rect" : [ 260.0, 317.0, 64.0, 21.0 ],
									"text" : "pack"
								}

							}
, 							{
								"box" : 								{
									"fontsize" : 11.0,
									"id" : "obj-25",
									"maxclass" : "newobj",
									"numinlets" : 2,
									"numoutlets" : 3,
									"outlettype" : [ "bang", "bang", "int" ],
									"patching_rect" : [ 260.0, 283.0, 50.0, 21.0 ],
									"text" : "uzi 8 0"
								}

							}
, 							{
								"box" : 								{
									"fontsize" : 11.0,
									"id" : "obj-21",
									"maxclass" : "newobj",
									"numinlets" : 2,
									"numoutlets" : 3,
									"outlettype" : [ "bang", "bang", "int" ],
									"patching_rect" : [ 179.5, 121.0, 99.5, 21.0 ],
									"text" : "uzi 16 0"
								}

							}
, 							{
								"box" : 								{
									"fontsize" : 11.0,
									"id" : "obj-15",
									"maxclass" : "message",
									"numinlets" : 2,
									"numoutlets" : 1,
									"outlettype" : [ "" ],
									"patching_rect" : [ 102.0, 348.0, 47.0, 21.0 ],
									"text" : "$2 $1"
								}

							}
, 							{
								"box" : 								{
									"fontsize" : 11.0,
									"id" : "obj-13",
									"maxclass" : "newobj",
									"numinlets" : 1,
									"numoutlets" : 2,
									"outlettype" : [ "bang", "int" ],
									"patching_rect" : [ 102.0, 249.0, 64.0, 21.0 ],
									"text" : "t b i"
								}

							}
, 							{
								"box" : 								{
									"fontsize" : 11.0,
									"id" : "obj-9",
									"maxclass" : "newobj",
									"numinlets" : 2,
									"numoutlets" : 1,
									"outlettype" : [ "" ],
									"patching_rect" : [ 102.0, 317.0, 64.0, 21.0 ],
									"text" : "pack"
								}

							}
, 							{
								"box" : 								{
									"fontsize" : 11.0,
									"id" : "obj-6",
									"maxclass" : "newobj",
									"numinlets" : 2,
									"numoutlets" : 3,
									"outlettype" : [ "bang", "bang", "int" ],
									"patching_rect" : [ 102.0, 280.0, 50.0, 21.0 ],
									"text" : "uzi 8 0"
								}

							}
, 							{
								"box" : 								{
									"fontsize" : 11.0,
									"id" : "obj-5",
									"maxclass" : "newobj",
									"numinlets" : 2,
									"numoutlets" : 3,
									"outlettype" : [ "bang", "bang", "int" ],
									"patching_rect" : [ 99.0, 121.0, 43.0, 21.0 ],
									"text" : "uzi 8 0"
								}

							}
, 							{
								"box" : 								{
									"fontsize" : 11.0,
									"id" : "obj-4",
									"maxclass" : "number",
									"maximum" : 8,
									"minimum" : 1,
									"numinlets" : 1,
									"numoutlets" : 2,
									"outlettype" : [ "", "bang" ],
									"parameter_enable" : 0,
									"patching_rect" : [ 98.5, 53.0, 50.0, 21.0 ]
								}

							}
, 							{
								"box" : 								{
									"comment" : "",
									"id" : "obj-2",
									"index" : 1,
									"maxclass" : "inlet",
									"numinlets" : 0,
									"numoutlets" : 1,
									"outlettype" : [ "preset" ],
									"patching_rect" : [ 98.5, 13.0, 30.0, 30.0 ]
								}

							}
, 							{
								"box" : 								{
									"fontsize" : 11.0,
									"id" : "obj-55",
									"maxclass" : "message",
									"numinlets" : 2,
									"numoutlets" : 1,
									"outlettype" : [ "" ],
									"patching_rect" : [ 260.0, 398.0, 93.0, 21.0 ],
									"text" : "disablecell $1 $2"
								}

							}
, 							{
								"box" : 								{
									"fontsize" : 11.0,
									"id" : "obj-36",
									"maxclass" : "message",
									"numinlets" : 2,
									"numoutlets" : 1,
									"outlettype" : [ "" ],
									"patching_rect" : [ 118.0, 398.0, 94.0, 21.0 ],
									"text" : "enablecell $1 $2"
								}

							}
, 							{
								"box" : 								{
									"comment" : "",
									"id" : "obj-56",
									"index" : 1,
									"maxclass" : "outlet",
									"numinlets" : 1,
									"numoutlets" : 0,
									"patching_rect" : [ 119.0, 450.0, 30.0, 30.0 ]
								}

							}
 ],
						"lines" : [ 							{
								"patchline" : 								{
									"destination" : [ "obj-13", 0 ],
									"source" : [ "obj-1", 0 ]
								}

							}
, 							{
								"patchline" : 								{
									"destination" : [ "obj-35", 0 ],
									"source" : [ "obj-1", 1 ]
								}

							}
, 							{
								"patchline" : 								{
									"destination" : [ "obj-6", 0 ],
									"source" : [ "obj-13", 0 ]
								}

							}
, 							{
								"patchline" : 								{
									"destination" : [ "obj-9", 1 ],
									"source" : [ "obj-13", 1 ]
								}

							}
, 							{
								"patchline" : 								{
									"destination" : [ "obj-36", 0 ],
									"source" : [ "obj-15", 0 ]
								}

							}
, 							{
								"patchline" : 								{
									"destination" : [ "obj-4", 0 ],
									"source" : [ "obj-2", 0 ]
								}

							}
, 							{
								"patchline" : 								{
									"destination" : [ "obj-23", 0 ],
									"source" : [ "obj-21", 2 ]
								}

							}
, 							{
								"patchline" : 								{
									"destination" : [ "obj-55", 0 ],
									"source" : [ "obj-22", 0 ]
								}

							}
, 							{
								"patchline" : 								{
									"destination" : [ "obj-24", 1 ],
									"source" : [ "obj-23", 1 ]
								}

							}
, 							{
								"patchline" : 								{
									"destination" : [ "obj-25", 0 ],
									"source" : [ "obj-23", 0 ]
								}

							}
, 							{
								"patchline" : 								{
									"destination" : [ "obj-22", 0 ],
									"source" : [ "obj-24", 0 ]
								}

							}
, 							{
								"patchline" : 								{
									"destination" : [ "obj-24", 0 ],
									"source" : [ "obj-25", 2 ]
								}

							}
, 							{
								"patchline" : 								{
									"destination" : [ "obj-1", 0 ],
									"source" : [ "obj-29", 0 ]
								}

							}
, 							{
								"patchline" : 								{
									"destination" : [ "obj-33", 1 ],
									"source" : [ "obj-31", 1 ]
								}

							}
, 							{
								"patchline" : 								{
									"destination" : [ "obj-34", 0 ],
									"source" : [ "obj-31", 0 ]
								}

							}
, 							{
								"patchline" : 								{
									"destination" : [ "obj-30", 0 ],
									"source" : [ "obj-33", 0 ]
								}

							}
, 							{
								"patchline" : 								{
									"destination" : [ "obj-33", 0 ],
									"source" : [ "obj-34", 2 ]
								}

							}
, 							{
								"patchline" : 								{
									"destination" : [ "obj-31", 0 ],
									"source" : [ "obj-35", 0 ]
								}

							}
, 							{
								"patchline" : 								{
									"destination" : [ "obj-56", 0 ],
									"source" : [ "obj-36", 0 ]
								}

							}
, 							{
								"patchline" : 								{
									"destination" : [ "obj-21", 0 ],
									"source" : [ "obj-38", 1 ]
								}

							}
, 							{
								"patchline" : 								{
									"destination" : [ "obj-5", 0 ],
									"source" : [ "obj-38", 0 ]
								}

							}
, 							{
								"patchline" : 								{
									"destination" : [ "obj-38", 0 ],
									"source" : [ "obj-4", 0 ]
								}

							}
, 							{
								"patchline" : 								{
									"destination" : [ "obj-29", 0 ],
									"source" : [ "obj-5", 2 ]
								}

							}
, 							{
								"patchline" : 								{
									"destination" : [ "obj-56", 0 ],
									"source" : [ "obj-55", 0 ]
								}

							}
, 							{
								"patchline" : 								{
									"destination" : [ "obj-9", 0 ],
									"source" : [ "obj-6", 2 ]
								}

							}
, 							{
								"patchline" : 								{
									"destination" : [ "obj-15", 0 ],
									"source" : [ "obj-9", 0 ]
								}

							}
 ]
					}
,
					"patching_rect" : [ 19.0, 225.0, 36.0, 22.0 ],
					"text" : "p"
				}

			}
, 			{
				"box" : 				{
					"angle" : 0.0,
					"bgcolor" : [ 0.686274509803922, 0.670588235294118, 0.454901960784314, 0.24 ],
					"border" : 1,
					"bordercolor" : [ 0.611764705882353, 0.690196078431373, 0.72156862745098, 1.0 ],
					"id" : "obj-42",
					"maxclass" : "panel",
					"mode" : 0,
					"numinlets" : 1,
					"numoutlets" : 0,
					"patching_rect" : [ 133.0, 383.0, 92.0, 43.0 ],
					"presentation" : 1,
					"presentation_rect" : [ 1.0, 0.0, 125.0, 125.0 ],
					"proportion" : 0.39,
					"rounded" : 2
				}

			}
 ],
		"lines" : [ 			{
				"patchline" : 				{
					"destination" : [ "obj-12", 0 ],
					"order" : 0,
					"source" : [ "obj-10", 0 ]
				}

			}
, 			{
				"patchline" : 				{
					"destination" : [ "obj-31", 0 ],
					"order" : 1,
					"source" : [ "obj-10", 0 ]
				}

			}
, 			{
				"patchline" : 				{
					"destination" : [ "obj-90", 0 ],
					"source" : [ "obj-10", 1 ]
				}

			}
, 			{
				"patchline" : 				{
					"destination" : [ "obj-31", 0 ],
					"source" : [ "obj-116", 0 ]
				}

			}
, 			{
				"patchline" : 				{
					"destination" : [ "obj-116", 0 ],
					"source" : [ "obj-119", 0 ]
				}

			}
, 			{
				"patchline" : 				{
					"destination" : [ "obj-119", 0 ],
					"source" : [ "obj-12", 0 ]
				}

			}
, 			{
				"patchline" : 				{
					"destination" : [ "obj-90", 0 ],
					"source" : [ "obj-13", 0 ]
				}

			}
, 			{
				"patchline" : 				{
					"destination" : [ "obj-11", 0 ],
					"source" : [ "obj-31", 0 ]
				}

			}
, 			{
				"patchline" : 				{
					"destination" : [ "obj-31", 0 ],
					"source" : [ "obj-57", 0 ]
				}

			}
, 			{
				"patchline" : 				{
					"destination" : [ "obj-31", 0 ],
					"order" : 0,
					"source" : [ "obj-62", 0 ]
				}

			}
, 			{
				"patchline" : 				{
					"destination" : [ "obj-57", 0 ],
					"order" : 1,
					"source" : [ "obj-62", 0 ]
				}

			}
, 			{
				"patchline" : 				{
					"destination" : [ "obj-90", 0 ],
					"source" : [ "obj-76", 0 ]
				}

			}
, 			{
				"patchline" : 				{
					"destination" : [ "obj-62", 0 ],
					"source" : [ "obj-80", 0 ]
				}

			}
, 			{
				"patchline" : 				{
					"destination" : [ "obj-80", 0 ],
					"source" : [ "obj-82", 0 ]
				}

			}
, 			{
				"patchline" : 				{
					"destination" : [ "obj-57", 0 ],
					"order" : 1,
					"source" : [ "obj-90", 0 ]
				}

			}
, 			{
				"patchline" : 				{
					"destination" : [ "obj-80", 0 ],
					"order" : 0,
					"source" : [ "obj-90", 0 ]
				}

			}
 ],
		"parameters" : 		{
			"obj-12" : [ "live.tab", "live.tab", 0 ],
			"obj-82" : [ "live.button[20]", "live.button", 0 ],
			"obj-90" : [ "voice-nr", "voice-nr", 0 ],
			"parameterbanks" : 			{
				"0" : 				{
					"index" : 0,
					"name" : "",
					"parameters" : [ "-", "-", "-", "-", "-", "-", "-", "-" ]
				}

			}
,
			"inherited_shortname" : 1
		}
,
		"dependency_cache" : [  ],
		"autosave" : 0
	}

}
