{
	"patcher" : 	{
		"fileversion" : 1,
		"appversion" : 		{
			"major" : 9,
			"minor" : 0,
			"revision" : 8,
			"architecture" : "x64",
			"modernui" : 1
		}
,
		"classnamespace" : "box",
		"rect" : [ 270.0, 141.0, 748.0, 720.0 ],
		"openinpresentation" : 1,
		"gridsize" : [ 15.0, 15.0 ],
		"toolbarvisible" : 0,
		"boxes" : [ 			{
				"box" : 				{
					"id" : "obj-34",
					"maxclass" : "message",
					"numinlets" : 2,
					"numoutlets" : 1,
					"outlettype" : [ "" ],
					"patching_rect" : [ 306.0, 339.0, 50.0, 22.0 ],
					"text" : "0"
				}

			}
, 			{
				"box" : 				{
					"id" : "obj-40",
					"maxclass" : "comment",
					"numinlets" : 1,
					"numoutlets" : 0,
					"patching_rect" : [ 224.0, 376.0, 21.0, 20.0 ],
					"presentation" : 1,
					"presentation_rect" : [ 149.0, 1.0, 21.0, 20.0 ],
					"text" : "_"
				}

			}
, 			{
				"box" : 				{
					"id" : "obj-42",
					"maxclass" : "comment",
					"numinlets" : 1,
					"numoutlets" : 0,
					"patching_rect" : [ 224.0, 406.0, 21.0, 20.0 ],
					"presentation" : 1,
					"presentation_rect" : [ 131.0, 27.0, 21.0, 20.0 ],
					"text" : "_",
					"textcolor" : [ 0.588235294117647, 0.588235294117647, 0.588235294117647, 1.0 ]
				}

			}
, 			{
				"box" : 				{
					"activebgcolor" : [ 0.290196078431373, 0.36078431372549, 0.435294117647059, 1.0 ],
					"id" : "obj-47",
					"maxclass" : "live.button",
					"numinlets" : 1,
					"numoutlets" : 1,
					"outlettype" : [ "" ],
					"parameter_enable" : 1,
					"patching_rect" : [ 216.0, 119.0, 15.0, 15.0 ],
					"presentation" : 1,
					"presentation_rect" : [ 129.0, 1.0, 14.0, 14.0 ],
					"saved_attribute_attributes" : 					{
						"activebgcolor" : 						{
							"expression" : ""
						}
,
						"valueof" : 						{
							"parameter_enum" : [ "off", "on" ],
							"parameter_longname" : "live.button[2]",
							"parameter_mmax" : 1,
							"parameter_modmode" : 0,
							"parameter_shortname" : "live.button[22]",
							"parameter_type" : 2
						}

					}
,
					"varname" : "sync[1]"
				}

			}
, 			{
				"box" : 				{
					"bgcolor" : [ 0.125490196078431, 0.125490196078431, 0.125490196078431, 0.0 ],
					"bordercolor" : [ 0.458823529411765, 0.458823529411765, 0.458823529411765, 0.0 ],
					"fgcolor" : [ 0.419607843137255, 0.52156862745098, 0.631372549019608, 1.0 ],
					"floatoutput" : 1,
					"id" : "obj-8",
					"maxclass" : "rslider",
					"numinlets" : 2,
					"numoutlets" : 2,
					"outlettype" : [ "", "" ],
					"parameter_enable" : 0,
					"patching_rect" : [ 254.0, 375.0, 25.0, 132.0 ],
					"presentation" : 1,
					"presentation_rect" : [ 129.0, 14.0, 14.0, 58.0 ],
					"size" : 100.0,
					"thickness" : 100.0,
					"varname" : "rslider"
				}

			}
, 			{
				"box" : 				{
					"id" : "obj-50",
					"maxclass" : "message",
					"numinlets" : 2,
					"numoutlets" : 1,
					"outlettype" : [ "" ],
					"patching_rect" : [ 254.0, 339.0, 50.0, 22.0 ],
					"text" : "0 100"
				}

			}
, 			{
				"box" : 				{
					"id" : "obj-45",
					"maxclass" : "newobj",
					"numinlets" : 2,
					"numoutlets" : 1,
					"outlettype" : [ "bang" ],
					"patching_rect" : [ 326.0, 307.0, 75.0, 22.0 ],
					"text" : "delay 2500"
				}

			}
, 			{
				"box" : 				{
					"id" : "obj-39",
					"maxclass" : "newobj",
					"numinlets" : 1,
					"numoutlets" : 1,
					"outlettype" : [ "bang" ],
					"patching_rect" : [ 326.0, 276.0, 78.0, 22.0 ],
					"text" : "loadbang"
				}

			}
, 			{
				"box" : 				{
					"format" : 6,
					"id" : "obj-49",
					"maxclass" : "flonum",
					"maximum" : 100.0,
					"minimum" : 0.0,
					"numinlets" : 1,
					"numoutlets" : 2,
					"outlettype" : [ "", "bang" ],
					"parameter_enable" : 0,
					"patching_rect" : [ 550.5, 11.0, 50.0, 22.0 ],
					"varname" : "number[1]"
				}

			}
, 			{
				"box" : 				{
					"id" : "obj-48",
					"maxclass" : "message",
					"numinlets" : 2,
					"numoutlets" : 1,
					"outlettype" : [ "" ],
					"patching_rect" : [ 487.5, 42.0, 67.0, 22.0 ],
					"text" : "vmod $1"
				}

			}
, 			{
				"box" : 				{
					"id" : "obj-46",
					"maxclass" : "message",
					"numinlets" : 2,
					"numoutlets" : 1,
					"outlettype" : [ "" ],
					"patching_rect" : [ 406.0, 132.5, 34.0, 22.0 ],
					"text" : "set"
				}

			}
, 			{
				"box" : 				{
					"format" : 6,
					"id" : "obj-44",
					"maxclass" : "flonum",
					"numinlets" : 1,
					"numoutlets" : 2,
					"outlettype" : [ "", "bang" ],
					"parameter_enable" : 0,
					"patching_rect" : [ 486.5, 11.0, 50.0, 22.0 ],
					"varname" : "number"
				}

			}
, 			{
				"box" : 				{
					"id" : "obj-24",
					"maxclass" : "newobj",
					"numinlets" : 1,
					"numoutlets" : 2,
					"outlettype" : [ "bang", "float" ],
					"patching_rect" : [ 247.0, 600.0, 36.0, 22.0 ],
					"text" : "t b f"
				}

			}
, 			{
				"box" : 				{
					"id" : "obj-43",
					"maxclass" : "comment",
					"numinlets" : 1,
					"numoutlets" : 0,
					"patching_rect" : [ 239.0, 421.0, 21.0, 20.0 ],
					"presentation" : 1,
					"presentation_rect" : [ 149.0, 49.0, 21.0, 20.0 ],
					"text" : "_"
				}

			}
, 			{
				"box" : 				{
					"id" : "obj-41",
					"maxclass" : "comment",
					"numinlets" : 1,
					"numoutlets" : 0,
					"patching_rect" : [ 224.0, 391.0, 21.0, 20.0 ],
					"presentation" : 1,
					"presentation_rect" : [ 149.0, 21.0, 21.0, 20.0 ],
					"text" : "_"
				}

			}
, 			{
				"box" : 				{
					"id" : "obj-36",
					"maxclass" : "comment",
					"numinlets" : 1,
					"numoutlets" : 0,
					"patching_rect" : [ 446.0, 565.0, 150.0, 20.0 ],
					"text" : "arg5: max val "
				}

			}
, 			{
				"box" : 				{
					"id" : "obj-33",
					"maxclass" : "comment",
					"numinlets" : 1,
					"numoutlets" : 0,
					"patching_rect" : [ 446.0, 549.0, 150.0, 20.0 ],
					"text" : "arg4: min val "
				}

			}
, 			{
				"box" : 				{
					"id" : "obj-32",
					"maxclass" : "comment",
					"numinlets" : 1,
					"numoutlets" : 0,
					"patching_rect" : [ 446.0, 527.0, 150.0, 20.0 ],
					"text" : "arg3: operand ( inc)"
				}

			}
, 			{
				"box" : 				{
					"id" : "obj-29",
					"maxclass" : "comment",
					"numinlets" : 1,
					"numoutlets" : 0,
					"patching_rect" : [ 446.0, 505.0, 150.0, 20.0 ],
					"text" : "arg2: einheit (Hz)"
				}

			}
, 			{
				"box" : 				{
					"id" : "obj-25",
					"maxclass" : "comment",
					"numinlets" : 1,
					"numoutlets" : 0,
					"patching_rect" : [ 446.0, 483.0, 150.0, 20.0 ],
					"text" : "arg1: name , beschriftung"
				}

			}
, 			{
				"box" : 				{
					"id" : "obj-21",
					"maxclass" : "newobj",
					"numinlets" : 1,
					"numoutlets" : 2,
					"outlettype" : [ "bang", "float" ],
					"patching_rect" : [ 332.0, 502.0, 39.0, 22.0 ],
					"text" : "t b f"
				}

			}
, 			{
				"box" : 				{
					"id" : "obj-9",
					"maxclass" : "newobj",
					"numinlets" : 2,
					"numoutlets" : 1,
					"outlettype" : [ "float" ],
					"patching_rect" : [ 247.0, 534.0, 39.0, 22.0 ],
					"text" : "+ 0."
				}

			}
, 			{
				"box" : 				{
					"id" : "obj-37",
					"maxclass" : "message",
					"numinlets" : 2,
					"numoutlets" : 1,
					"outlettype" : [ "" ],
					"patching_rect" : [ 371.0, 345.0, 50.0, 22.0 ],
					"text" : "$1 100"
				}

			}
, 			{
				"box" : 				{
					"bgcolor" : [ 0.125490196078431, 0.125490196078431, 0.125490196078431, 0.0 ],
					"bordercolor" : [ 0.458823529411765, 0.458823529411765, 0.458823529411765, 0.0 ],
					"fgcolor" : [ 0.196078431372549, 0.27843137254902, 0.556862745098039, 0.450980392156863 ],
					"id" : "obj-35",
					"ignoreclick" : 1,
					"maxclass" : "rslider",
					"numinlets" : 2,
					"numoutlets" : 2,
					"outlettype" : [ "", "" ],
					"parameter_enable" : 0,
					"patching_rect" : [ 281.0, 375.0, 25.0, 132.0 ],
					"presentation" : 1,
					"presentation_rect" : [ 141.0, 14.0, 10.0, 58.0 ],
					"size" : 100.0,
					"thickness" : 100.0,
					"varname" : "rslider[1]"
				}

			}
, 			{
				"box" : 				{
					"id" : "obj-20",
					"maxclass" : "newobj",
					"numinlets" : 2,
					"numoutlets" : 2,
					"outlettype" : [ "", "" ],
					"patching_rect" : [ 371.0, 56.0, 106.0, 22.0 ],
					"text" : "route vmod"
				}

			}
, 			{
				"box" : 				{
					"id" : "obj-31",
					"maxclass" : "newobj",
					"numinlets" : 2,
					"numoutlets" : 1,
					"outlettype" : [ "float" ],
					"patching_rect" : [ 300.0, 566.0, 39.0, 22.0 ],
					"text" : "/ 99."
				}

			}
, 			{
				"box" : 				{
					"id" : "obj-30",
					"maxclass" : "newobj",
					"numinlets" : 2,
					"numoutlets" : 1,
					"outlettype" : [ "float" ],
					"patching_rect" : [ 247.0, 566.0, 39.0, 22.0 ],
					"text" : "/ 99."
				}

			}
, 			{
				"box" : 				{
					"id" : "obj-22",
					"maxclass" : "newobj",
					"numinlets" : 6,
					"numoutlets" : 1,
					"outlettype" : [ "" ],
					"patching_rect" : [ 203.0, 647.0, 124.0, 22.0 ],
					"text" : "scale 0. 1. 0.5 1."
				}

			}
, 			{
				"box" : 				{
					"fontsize" : 11.0,
					"id" : "obj-19",
					"maxclass" : "comment",
					"numinlets" : 1,
					"numoutlets" : 0,
					"patching_rect" : [ 97.0, 117.0, 37.0, 19.0 ],
					"presentation" : 1,
					"presentation_rect" : [ 83.0, -2.0, 34.0, 19.0 ],
					"text" : "sync"
				}

			}
, 			{
				"box" : 				{
					"id" : "obj-17",
					"maxclass" : "newobj",
					"numinlets" : 1,
					"numoutlets" : 1,
					"outlettype" : [ "" ],
					"patching_rect" : [ 551.0, 259.0, 123.0, 22.0 ],
					"text" : "prepend vmod.speed"
				}

			}
, 			{
				"box" : 				{
					"id" : "obj-15",
					"maxclass" : "message",
					"numinlets" : 2,
					"numoutlets" : 1,
					"outlettype" : [ "" ],
					"patching_rect" : [ 406.0, 245.0, 71.0, 22.0 ]
				}

			}
, 			{
				"box" : 				{
					"id" : "obj-7",
					"maxclass" : "newobj",
					"numinlets" : 2,
					"numoutlets" : 2,
					"outlettype" : [ "", "" ],
					"patching_rect" : [ 458.0, 93.0, 107.0, 22.0 ],
					"text" : "combine A _bp8"
				}

			}
, 			{
				"box" : 				{
					"comment" : "",
					"id" : "obj-3",
					"index" : 0,
					"maxclass" : "inlet",
					"numinlets" : 0,
					"numoutlets" : 1,
					"outlettype" : [ "" ],
					"patching_rect" : [ 371.0, 8.0, 30.0, 30.0 ]
				}

			}
, 			{
				"box" : 				{
					"id" : "obj-14",
					"maxclass" : "newobj",
					"numinlets" : 1,
					"numoutlets" : 2,
					"outlettype" : [ "bang", "float" ],
					"patching_rect" : [ 247.0, 209.0, 34.0, 22.0 ],
					"text" : "t b f"
				}

			}
, 			{
				"box" : 				{
					"id" : "obj-12",
					"maxclass" : "newobj",
					"numinlets" : 2,
					"numoutlets" : 1,
					"outlettype" : [ "float" ],
					"patching_rect" : [ 281.0, 255.0, 32.0, 22.0 ],
					"text" : "* 1."
				}

			}
, 			{
				"box" : 				{
					"id" : "obj-10",
					"maxclass" : "newobj",
					"numinlets" : 2,
					"numoutlets" : 1,
					"outlettype" : [ "float" ],
					"patching_rect" : [ 231.0, 255.0, 32.0, 22.0 ],
					"text" : "* 1."
				}

			}
, 			{
				"box" : 				{
					"id" : "obj-6",
					"maxclass" : "newobj",
					"numinlets" : 3,
					"numoutlets" : 1,
					"outlettype" : [ "" ],
					"patching_rect" : [ 181.0, 284.0, 119.0, 22.0 ],
					"text" : "pack deviate 0. 0."
				}

			}
, 			{
				"box" : 				{
					"id" : "obj-2",
					"maxclass" : "newobj",
					"numinlets" : 1,
					"numoutlets" : 3,
					"outlettype" : [ "", "float", "float" ],
					"patching_rect" : [ 181.0, 178.0, 119.0, 22.0 ],
					"text" : "unpack deviate 0. 0."
				}

			}
, 			{
				"box" : 				{
					"id" : "obj-26",
					"maxclass" : "newobj",
					"numinlets" : 1,
					"numoutlets" : 2,
					"outlettype" : [ "bang", "" ],
					"patching_rect" : [ 551.0, 296.0, 45.0, 22.0 ],
					"text" : "t b l"
				}

			}
, 			{
				"box" : 				{
					"id" : "obj-64",
					"maxclass" : "newobj",
					"numinlets" : 2,
					"numoutlets" : 2,
					"outlettype" : [ "", "" ],
					"patching_rect" : [ 477.0, 328.0, 45.0, 22.0 ],
					"text" : "zl reg"
				}

			}
, 			{
				"box" : 				{
					"id" : "obj-27",
					"maxclass" : "newobj",
					"numinlets" : 2,
					"numoutlets" : 2,
					"outlettype" : [ "", "" ],
					"patching_rect" : [ 477.0, 358.0, 119.0, 22.0 ],
					"text" : "zl join"
				}

			}
, 			{
				"box" : 				{
					"id" : "obj-28",
					"maxclass" : "newobj",
					"numinlets" : 1,
					"numoutlets" : 0,
					"patching_rect" : [ 477.0, 390.0, 79.0, 22.0 ],
					"text" : "s mclook"
				}

			}
, 			{
				"box" : 				{
					"id" : "obj-18",
					"maxclass" : "message",
					"numinlets" : 2,
					"numoutlets" : 1,
					"outlettype" : [ "" ],
					"patching_rect" : [ 408.0, 213.0, 201.0, 22.0 ],
					"text" : "increment 0.005 0.07"
				}

			}
, 			{
				"box" : 				{
					"args" : [ "speed", "Hz", "inc", 0.07, 0.005, "@min", 0, "@max", 10 ],
					"bgmode" : 0,
					"border" : 1,
					"clickthrough" : 0,
					"enablehscroll" : 0,
					"enablevscroll" : 0,
					"id" : "obj-11",
					"lockeddragscroll" : 0,
					"lockedsize" : 0,
					"maxclass" : "bpatcher",
					"name" : "mc.opx1amod.maxpat",
					"numinlets" : 1,
					"numoutlets" : 2,
					"offset" : [ 0.0, 0.0 ],
					"outlettype" : [ "", "" ],
					"patching_rect" : [ 551.0, 127.0, 148.0, 33.0 ],
					"presentation" : 1,
					"presentation_rect" : [ 2.0, 85.0, 148.0, 34.0 ],
					"varname" : "mc.opx1a",
					"viewvisibility" : 1
				}

			}
, 			{
				"box" : 				{
					"id" : "obj-4",
					"maxclass" : "newobj",
					"numinlets" : 6,
					"numoutlets" : 6,
					"outlettype" : [ "", "", "", "", "", "" ],
					"patching_rect" : [ 15.0, 56.0, 224.0, 22.0 ],
					"text" : "route mslider freq-amt sync on play"
				}

			}
, 			{
				"box" : 				{
					"comment" : "",
					"id" : "obj-1",
					"index" : 0,
					"maxclass" : "inlet",
					"numinlets" : 0,
					"numoutlets" : 1,
					"outlettype" : [ "" ],
					"patching_rect" : [ 15.0, 16.0, 30.0, 30.0 ]
				}

			}
, 			{
				"box" : 				{
					"id" : "obj-13",
					"maxclass" : "newobj",
					"numinlets" : 1,
					"numoutlets" : 4,
					"outlettype" : [ "", "", "", "" ],
					"patching_rect" : [ 67.0, 12.0, 148.0, 22.0 ],
					"restore" : 					{
						"mc-fader8" : [ 1.0, 1.0, 1.0, 1.0, 1.0, 1.0, 1.0, 1.0 ],
						"mod-on" : [ 0.0 ],
						"number" : [ 0.0 ],
						"number[1]" : [ 0.0 ],
						"rslider" : [ 0.0, 100.0 ],
						"sr-mix" : [ 25.0 ],
						"sync[1]" : [ 0.0 ]
					}
,
					"text" : "autopattr @autoname 1",
					"varname" : "u940012773[2]"
				}

			}
, 			{
				"box" : 				{
					"id" : "obj-23",
					"maxclass" : "newobj",
					"numinlets" : 6,
					"numoutlets" : 1,
					"outlettype" : [ "" ],
					"patcher" : 					{
						"fileversion" : 1,
						"appversion" : 						{
							"major" : 9,
							"minor" : 0,
							"revision" : 8,
							"architecture" : "x64",
							"modernui" : 1
						}
,
						"classnamespace" : "box",
						"rect" : [ 1015.0, 125.0, 533.0, 631.0 ],
						"gridsize" : [ 15.0, 15.0 ],
						"boxes" : [ 							{
								"box" : 								{
									"fontsize" : 11.0,
									"id" : "obj-31",
									"maxclass" : "newobj",
									"numinlets" : 1,
									"numoutlets" : 2,
									"outlettype" : [ "bang", "int" ],
									"patching_rect" : [ 68.0, 89.0, 29.5, 21.0 ],
									"text" : "t b i"
								}

							}
, 							{
								"box" : 								{
									"fontsize" : 11.0,
									"id" : "obj-30",
									"maxclass" : "newobj",
									"numinlets" : 2,
									"numoutlets" : 1,
									"outlettype" : [ "int" ],
									"patching_rect" : [ 32.5, 129.0, 54.0, 21.0 ],
									"text" : "&&"
								}

							}
, 							{
								"box" : 								{
									"id" : "obj-29",
									"maxclass" : "comment",
									"numinlets" : 1,
									"numoutlets" : 0,
									"patching_rect" : [ 65.0, 7.0, 32.0, 20.0 ],
									"presentation_linecount" : 2,
									"text" : "play"
								}

							}
, 							{
								"box" : 								{
									"comment" : "",
									"id" : "obj-26",
									"index" : 2,
									"maxclass" : "inlet",
									"numinlets" : 0,
									"numoutlets" : 1,
									"outlettype" : [ "" ],
									"patching_rect" : [ 67.5, 40.0, 30.0, 30.0 ]
								}

							}
, 							{
								"box" : 								{
									"id" : "obj-24",
									"maxclass" : "comment",
									"numinlets" : 1,
									"numoutlets" : 0,
									"patching_rect" : [ 161.0, 20.0, 53.0, 20.0 ],
									"text" : "orange"
								}

							}
, 							{
								"box" : 								{
									"id" : "obj-15",
									"maxclass" : "message",
									"numinlets" : 2,
									"numoutlets" : 1,
									"outlettype" : [ "" ],
									"patching_rect" : [ 125.0, 267.0, 50.0, 22.0 ],
									"text" : "zlclear"
								}

							}
, 							{
								"box" : 								{
									"id" : "obj-27",
									"maxclass" : "message",
									"numinlets" : 2,
									"numoutlets" : 1,
									"outlettype" : [ "" ],
									"patching_rect" : [ 80.0, 292.0, 25.0, 22.0 ],
									"text" : "1"
								}

							}
, 							{
								"box" : 								{
									"id" : "obj-5",
									"maxclass" : "newobj",
									"numinlets" : 1,
									"numoutlets" : 2,
									"outlettype" : [ "bang", "zlclear" ],
									"patching_rect" : [ 297.0, 76.0, 71.0, 22.0 ],
									"text" : "t b zlclear"
								}

							}
, 							{
								"box" : 								{
									"id" : "obj-25",
									"maxclass" : "message",
									"numinlets" : 2,
									"numoutlets" : 1,
									"outlettype" : [ "" ],
									"patching_rect" : [ 50.0, 292.0, 25.0, 22.0 ],
									"text" : "0"
								}

							}
, 							{
								"box" : 								{
									"fontsize" : 11.0,
									"id" : "obj-23",
									"maxclass" : "newobj",
									"numinlets" : 2,
									"numoutlets" : 1,
									"outlettype" : [ "bang" ],
									"patching_rect" : [ 50.0, 267.0, 52.0, 21.0 ],
									"text" : "del 3020"
								}

							}
, 							{
								"box" : 								{
									"fontsize" : 11.0,
									"id" : "obj-17",
									"maxclass" : "newobj",
									"numinlets" : 3,
									"numoutlets" : 3,
									"outlettype" : [ "bang", "bang", "" ],
									"patching_rect" : [ 50.0, 206.0, 52.0, 21.0 ],
									"text" : "sel 0 1"
								}

							}
, 							{
								"box" : 								{
									"id" : "obj-16",
									"maxclass" : "toggle",
									"numinlets" : 1,
									"numoutlets" : 1,
									"outlettype" : [ "int" ],
									"parameter_enable" : 0,
									"patching_rect" : [ 32.0, 81.0, 25.0, 25.0 ]
								}

							}
, 							{
								"box" : 								{
									"id" : "obj-14",
									"maxclass" : "newobj",
									"numinlets" : 2,
									"numoutlets" : 1,
									"outlettype" : [ "float" ],
									"patching_rect" : [ 50.0, 461.0, 100.0, 22.0 ],
									"text" : "+ 0."
								}

							}
, 							{
								"box" : 								{
									"fontsize" : 11.0,
									"id" : "obj-12",
									"maxclass" : "newobj",
									"numinlets" : 2,
									"numoutlets" : 1,
									"outlettype" : [ "float" ],
									"patching_rect" : [ 303.0, 382.0, 38.0, 21.0 ],
									"text" : "!- 1."
								}

							}
, 							{
								"box" : 								{
									"id" : "obj-11",
									"maxclass" : "newobj",
									"numinlets" : 2,
									"numoutlets" : 1,
									"outlettype" : [ "float" ],
									"patching_rect" : [ 50.0, 420.0, 100.0, 22.0 ],
									"text" : "* 1."
								}

							}
, 							{
								"box" : 								{
									"fontsize" : 11.0,
									"id" : "obj-10",
									"maxclass" : "message",
									"numinlets" : 2,
									"numoutlets" : 1,
									"outlettype" : [ "" ],
									"patching_rect" : [ 380.0, 296.0, 48.0, 21.0 ],
									"text" : "1 1000"
								}

							}
, 							{
								"box" : 								{
									"fontsize" : 11.0,
									"id" : "obj-9",
									"maxclass" : "message",
									"numinlets" : 2,
									"numoutlets" : 1,
									"outlettype" : [ "" ],
									"patching_rect" : [ 303.0, 296.0, 48.0, 21.0 ],
									"text" : "0 3000"
								}

							}
, 							{
								"box" : 								{
									"fontsize" : 11.0,
									"id" : "obj-1",
									"maxclass" : "newobj",
									"numinlets" : 3,
									"numoutlets" : 2,
									"outlettype" : [ "", "bang" ],
									"patching_rect" : [ 303.0, 338.0, 61.0, 21.0 ],
									"text" : "line 0."
								}

							}
, 							{
								"box" : 								{
									"id" : "obj-8",
									"linecount" : 2,
									"maxclass" : "comment",
									"numinlets" : 1,
									"numoutlets" : 0,
									"patching_rect" : [ 94.0, 7.0, 65.0, 33.0 ],
									"text" : "freq from mc.opx"
								}

							}
, 							{
								"box" : 								{
									"id" : "obj-7",
									"maxclass" : "comment",
									"numinlets" : 1,
									"numoutlets" : 0,
									"patching_rect" : [ 161.0, 7.0, 53.0, 20.0 ],
									"text" : "mslider"
								}

							}
, 							{
								"box" : 								{
									"comment" : "",
									"id" : "obj-6",
									"index" : 3,
									"maxclass" : "inlet",
									"numinlets" : 0,
									"numoutlets" : 1,
									"outlettype" : [ "" ],
									"patching_rect" : [ 104.5, 40.0, 30.0, 30.0 ]
								}

							}
, 							{
								"box" : 								{
									"id" : "obj-4",
									"maxclass" : "comment",
									"numinlets" : 1,
									"numoutlets" : 0,
									"patching_rect" : [ 32.0, 7.0, 30.0, 20.0 ],
									"text" : "on"
								}

							}
, 							{
								"box" : 								{
									"id" : "obj-3",
									"maxclass" : "comment",
									"numinlets" : 1,
									"numoutlets" : 0,
									"patching_rect" : [ 293.0, 7.0, 38.0, 20.0 ],
									"text" : "sync"
								}

							}
, 							{
								"box" : 								{
									"id" : "obj-2",
									"maxclass" : "comment",
									"numinlets" : 1,
									"numoutlets" : 0,
									"patching_rect" : [ 219.0, 7.0, 53.0, 20.0 ],
									"text" : "sr-mix"
								}

							}
, 							{
								"box" : 								{
									"id" : "obj-36",
									"maxclass" : "toggle",
									"numinlets" : 1,
									"numoutlets" : 1,
									"outlettype" : [ "int" ],
									"parameter_enable" : 0,
									"patching_rect" : [ 297.0, 154.0, 25.0, 25.0 ]
								}

							}
, 							{
								"box" : 								{
									"fontsize" : 11.0,
									"id" : "obj-78",
									"maxclass" : "newobj",
									"numinlets" : 3,
									"numoutlets" : 3,
									"outlettype" : [ "bang", "bang", "" ],
									"patching_rect" : [ 303.0, 267.0, 173.0, 21.0 ],
									"text" : "sel 0 1"
								}

							}
, 							{
								"box" : 								{
									"fontsize" : 11.0,
									"id" : "obj-72",
									"maxclass" : "newobj",
									"numinlets" : 1,
									"numoutlets" : 2,
									"outlettype" : [ "int", "int" ],
									"patching_rect" : [ 32.0, 156.0, 37.0, 21.0 ],
									"text" : "t i i"
								}

							}
, 							{
								"box" : 								{
									"fontsize" : 11.0,
									"id" : "obj-50",
									"maxclass" : "message",
									"numinlets" : 2,
									"numoutlets" : 1,
									"outlettype" : [ "" ],
									"patching_rect" : [ 50.0, 327.0, 55.0, 21.0 ],
									"text" : "active $1"
								}

							}
, 							{
								"box" : 								{
									"data" : 									{
										"patcher" : 										{
											"fileversion" : 1,
											"appversion" : 											{
												"major" : 9,
												"minor" : 0,
												"revision" : 8,
												"architecture" : "x64",
												"modernui" : 1
											}
,
											"classnamespace" : "dsp.gen",
											"rect" : [ 659.0, 425.0, 571.0, 525.0 ],
											"gridsize" : [ 15.0, 15.0 ],
											"toolbars_unpinned_last_save" : 11,
											"boxes" : [ 												{
													"box" : 													{
														"maxclass" : "newobj",
														"text" : "latch",
														"patching_rect" : [ 406.0, 118.0, 54.0, 22.0 ],
														"outlettype" : [ "" ],
														"id" : "obj-5",
														"numinlets" : 2,
														"numoutlets" : 1
													}

												}
, 												{
													"box" : 													{
														"maxclass" : "newobj",
														"text" : "* 0.8",
														"patching_rect" : [ 150.0, 232.0, 37.0, 22.0 ],
														"outlettype" : [ "" ],
														"id" : "obj-30",
														"numinlets" : 1,
														"numoutlets" : 1
													}

												}
, 												{
													"box" : 													{
														"maxclass" : "newobj",
														"text" : "mix",
														"patching_rect" : [ 43.0, 351.0, 329.0, 22.0 ],
														"outlettype" : [ "" ],
														"id" : "obj-28",
														"numinlets" : 3,
														"numoutlets" : 1
													}

												}
, 												{
													"box" : 													{
														"maxclass" : "newobj",
														"text" : "* 2.5",
														"patching_rect" : [ 198.0, 70.0, 33.0, 22.0 ],
														"outlettype" : [ "" ],
														"id" : "obj-24",
														"numinlets" : 1,
														"numoutlets" : 1
													}

												}
, 												{
													"box" : 													{
														"maxclass" : "newobj",
														"text" : "onepole",
														"patching_rect" : [ 198.0, 278.0, 58.0, 22.0 ],
														"outlettype" : [ "" ],
														"id" : "obj-16",
														"numinlets" : 2,
														"numoutlets" : 1
													}

												}
, 												{
													"box" : 													{
														"maxclass" : "newobj",
														"text" : "expr abs(log2(1/ in1))",
														"patching_rect" : [ 264.0, 221.0, 127.0, 22.0 ],
														"outlettype" : [ "" ],
														"id" : "obj-42",
														"numinlets" : 1,
														"numoutlets" : 1
													}

												}
, 												{
													"box" : 													{
														"maxclass" : "newobj",
														"text" : "expr 1. + 1.5*in1",
														"patching_rect" : [ 264.0, 278.0, 117.0, 22.0 ],
														"outlettype" : [ "" ],
														"id" : "obj-41",
														"numinlets" : 1,
														"numoutlets" : 1
													}

												}
, 												{
													"box" : 													{
														"maxclass" : "newobj",
														"text" : "clip 1 10",
														"patching_rect" : [ 264.0, 251.0, 56.0, 22.0 ],
														"outlettype" : [ "" ],
														"id" : "obj-40",
														"numinlets" : 1,
														"numoutlets" : 1
													}

												}
, 												{
													"box" : 													{
														"maxclass" : "newobj",
														"text" : "clip 0.001 20.",
														"patching_rect" : [ 264.0, 194.0, 82.0, 22.0 ],
														"outlettype" : [ "" ],
														"id" : "obj-38",
														"numinlets" : 1,
														"numoutlets" : 1
													}

												}
, 												{
													"box" : 													{
														"maxclass" : "newobj",
														"text" : "fold -1 1",
														"patching_rect" : [ 149.0, 423.0, 52.0, 22.0 ],
														"outlettype" : [ "" ],
														"id" : "obj-33",
														"numinlets" : 1,
														"numoutlets" : 1
													}

												}
, 												{
													"box" : 													{
														"maxclass" : "newobj",
														"text" : "*",
														"patching_rect" : [ 198.0, 315.0, 85.0, 22.0 ],
														"outlettype" : [ "" ],
														"id" : "obj-31",
														"numinlets" : 2,
														"numoutlets" : 1
													}

												}
, 												{
													"box" : 													{
														"maxclass" : "newobj",
														"text" : "* 1.3",
														"patching_rect" : [ 149.5, 125.0, 38.0, 22.0 ],
														"outlettype" : [ "" ],
														"id" : "obj-29",
														"numinlets" : 1,
														"numoutlets" : 1
													}

												}
, 												{
													"box" : 													{
														"maxclass" : "comment",
														"text" : "phase sync",
														"patching_rect" : [ 109.0, 11.0, 71.0, 20.0 ],
														"id" : "obj-27",
														"numinlets" : 1,
														"numoutlets" : 0
													}

												}
, 												{
													"box" : 													{
														"maxclass" : "newobj",
														"text" : "delta",
														"patching_rect" : [ 122.0, 70.0, 45.0, 22.0 ],
														"outlettype" : [ "" ],
														"id" : "obj-23",
														"numinlets" : 1,
														"numoutlets" : 1
													}

												}
, 												{
													"box" : 													{
														"maxclass" : "newobj",
														"text" : "in 2",
														"patching_rect" : [ 122.0, 36.0, 28.0, 22.0 ],
														"outlettype" : [ "" ],
														"id" : "obj-22",
														"numinlets" : 0,
														"numoutlets" : 1
													}

												}
, 												{
													"box" : 													{
														"maxclass" : "newobj",
														"text" : "phasor",
														"patching_rect" : [ 43.0, 194.0, 63.0, 22.0 ],
														"outlettype" : [ "" ],
														"id" : "obj-17",
														"numinlets" : 2,
														"numoutlets" : 1
													}

												}
, 												{
													"box" : 													{
														"maxclass" : "newobj",
														"text" : "/ 100",
														"patching_rect" : [ 353.0, 70.0, 40.0, 22.0 ],
														"outlettype" : [ "" ],
														"id" : "obj-26",
														"numinlets" : 1,
														"numoutlets" : 1
													}

												}
, 												{
													"box" : 													{
														"maxclass" : "newobj",
														"text" : "abs",
														"patching_rect" : [ 43.0, 70.0, 28.0, 22.0 ],
														"outlettype" : [ "" ],
														"id" : "obj-25",
														"numinlets" : 1,
														"numoutlets" : 1
													}

												}
, 												{
													"box" : 													{
														"maxclass" : "newobj",
														"text" : "scale -1 1 0 1",
														"patching_rect" : [ 43.0, 423.0, 92.0, 22.0 ],
														"outlettype" : [ "" ],
														"id" : "obj-19",
														"numinlets" : 2,
														"numoutlets" : 1
													}

												}
, 												{
													"box" : 													{
														"maxclass" : "newobj",
														"text" : "onepole",
														"patching_rect" : [ 198.0, 232.0, 58.0, 22.0 ],
														"outlettype" : [ "" ],
														"id" : "obj-18",
														"numinlets" : 2,
														"numoutlets" : 1
													}

												}
, 												{
													"box" : 													{
														"maxclass" : "newobj",
														"text" : "onepole",
														"patching_rect" : [ 198.0, 194.0, 58.0, 22.0 ],
														"outlettype" : [ "" ],
														"id" : "obj-7",
														"numinlets" : 2,
														"numoutlets" : 1
													}

												}
, 												{
													"box" : 													{
														"maxclass" : "comment",
														"text" : "amount of noise",
														"patching_rect" : [ 324.0, 7.0, 94.0, 20.0 ],
														"id" : "obj-14",
														"numinlets" : 1,
														"numoutlets" : 0
													}

												}
, 												{
													"box" : 													{
														"maxclass" : "comment",
														"text" : "frequency",
														"patching_rect" : [ 21.5, 11.0, 71.0, 20.0 ],
														"id" : "obj-11",
														"numinlets" : 1,
														"numoutlets" : 0
													}

												}
, 												{
													"box" : 													{
														"maxclass" : "comment",
														"text" : "cosine oscillator",
														"patching_rect" : [ 59.0, 302.0, 94.0, 20.0 ],
														"id" : "obj-10",
														"numinlets" : 1,
														"numoutlets" : 0
													}

												}
, 												{
													"box" : 													{
														"maxclass" : "comment",
														"text" : "make sure the values stay in the [-1, 1] range",
														"patching_rect" : [ 102.0, 389.0, 249.0, 20.0 ],
														"id" : "obj-13",
														"numinlets" : 1,
														"numoutlets" : 0
													}

												}
, 												{
													"box" : 													{
														"maxclass" : "comment",
														"text" : "control the amount of noise",
														"patching_rect" : [ 308.0, 377.0, 141.0, 19.0 ],
														"id" : "obj-12",
														"fontsize" : 11.0,
														"numinlets" : 1,
														"numoutlets" : 0
													}

												}
, 												{
													"box" : 													{
														"maxclass" : "newobj",
														"text" : "in 3",
														"patching_rect" : [ 353.0, 36.0, 28.0, 22.0 ],
														"outlettype" : [ "" ],
														"id" : "obj-9",
														"numinlets" : 0,
														"numoutlets" : 1
													}

												}
, 												{
													"box" : 													{
														"maxclass" : "newobj",
														"text" : "clip -1 1",
														"patching_rect" : [ 43.0, 388.0, 52.0, 22.0 ],
														"outlettype" : [ "" ],
														"id" : "obj-6",
														"numinlets" : 1,
														"numoutlets" : 1
													}

												}
, 												{
													"box" : 													{
														"maxclass" : "newobj",
														"text" : "pink",
														"patching_rect" : [ 198.0, 36.0, 37.0, 22.0 ],
														"outlettype" : [ "" ],
														"id" : "obj-2",
														"numinlets" : 1,
														"numoutlets" : 1
													}

												}
, 												{
													"box" : 													{
														"maxclass" : "newobj",
														"text" : "in 1",
														"patching_rect" : [ 43.0, 36.0, 28.0, 22.0 ],
														"outlettype" : [ "" ],
														"id" : "obj-1",
														"numinlets" : 0,
														"numoutlets" : 1
													}

												}
, 												{
													"box" : 													{
														"maxclass" : "newobj",
														"text" : "cycle @index phase",
														"patching_rect" : [ 43.0, 278.0, 126.0, 22.0 ],
														"outlettype" : [ "", "" ],
														"id" : "obj-3",
														"numinlets" : 1,
														"numoutlets" : 2
													}

												}
, 												{
													"box" : 													{
														"maxclass" : "newobj",
														"text" : "out 1",
														"patching_rect" : [ 43.0, 463.0, 35.0, 22.0 ],
														"id" : "obj-4",
														"numinlets" : 1,
														"numoutlets" : 0
													}

												}
 ],
											"lines" : [ 												{
													"patchline" : 													{
														"source" : [ "obj-24", 0 ],
														"destination" : [ "obj-7", 0 ]
													}

												}
, 												{
													"patchline" : 													{
														"source" : [ "obj-2", 0 ],
														"destination" : [ "obj-24", 0 ]
													}

												}
, 												{
													"patchline" : 													{
														"source" : [ "obj-25", 0 ],
														"destination" : [ "obj-29", 0 ],
														"order" : 2
													}

												}
, 												{
													"patchline" : 													{
														"source" : [ "obj-29", 0 ],
														"destination" : [ "obj-7", 1 ]
													}

												}
, 												{
													"patchline" : 													{
														"source" : [ "obj-25", 0 ],
														"destination" : [ "obj-18", 1 ],
														"order" : 1
													}

												}
, 												{
													"patchline" : 													{
														"source" : [ "obj-30", 0 ],
														"destination" : [ "obj-16", 1 ]
													}

												}
, 												{
													"patchline" : 													{
														"source" : [ "obj-25", 0 ],
														"destination" : [ "obj-30", 0 ],
														"order" : 3
													}

												}
, 												{
													"patchline" : 													{
														"source" : [ "obj-28", 0 ],
														"destination" : [ "obj-6", 0 ]
													}

												}
, 												{
													"patchline" : 													{
														"source" : [ "obj-26", 0 ],
														"destination" : [ "obj-28", 2 ]
													}

												}
, 												{
													"patchline" : 													{
														"source" : [ "obj-31", 0 ],
														"destination" : [ "obj-28", 1 ]
													}

												}
, 												{
													"patchline" : 													{
														"source" : [ "obj-3", 0 ],
														"destination" : [ "obj-28", 0 ]
													}

												}
, 												{
													"patchline" : 													{
														"source" : [ "obj-9", 0 ],
														"destination" : [ "obj-26", 0 ]
													}

												}
, 												{
													"patchline" : 													{
														"source" : [ "obj-18", 0 ],
														"destination" : [ "obj-16", 0 ]
													}

												}
, 												{
													"patchline" : 													{
														"source" : [ "obj-16", 0 ],
														"destination" : [ "obj-31", 0 ]
													}

												}
, 												{
													"patchline" : 													{
														"source" : [ "obj-42", 0 ],
														"destination" : [ "obj-40", 0 ]
													}

												}
, 												{
													"patchline" : 													{
														"source" : [ "obj-38", 0 ],
														"destination" : [ "obj-42", 0 ]
													}

												}
, 												{
													"patchline" : 													{
														"source" : [ "obj-25", 0 ],
														"destination" : [ "obj-38", 0 ],
														"order" : 0
													}

												}
, 												{
													"patchline" : 													{
														"source" : [ "obj-6", 0 ],
														"destination" : [ "obj-19", 0 ]
													}

												}
, 												{
													"patchline" : 													{
														"source" : [ "obj-23", 0 ],
														"destination" : [ "obj-17", 1 ]
													}

												}
, 												{
													"patchline" : 													{
														"source" : [ "obj-22", 0 ],
														"destination" : [ "obj-23", 0 ]
													}

												}
, 												{
													"patchline" : 													{
														"source" : [ "obj-17", 0 ],
														"destination" : [ "obj-3", 0 ]
													}

												}
, 												{
													"patchline" : 													{
														"source" : [ "obj-25", 0 ],
														"destination" : [ "obj-17", 0 ],
														"order" : 4
													}

												}
, 												{
													"patchline" : 													{
														"source" : [ "obj-1", 0 ],
														"destination" : [ "obj-25", 0 ]
													}

												}
, 												{
													"patchline" : 													{
														"source" : [ "obj-19", 0 ],
														"destination" : [ "obj-4", 0 ]
													}

												}
, 												{
													"patchline" : 													{
														"source" : [ "obj-7", 0 ],
														"destination" : [ "obj-18", 0 ]
													}

												}
, 												{
													"patchline" : 													{
														"source" : [ "obj-40", 0 ],
														"destination" : [ "obj-41", 0 ]
													}

												}
, 												{
													"patchline" : 													{
														"source" : [ "obj-41", 0 ],
														"destination" : [ "obj-31", 1 ]
													}

												}
 ]
										}

									}
,
									"id" : "obj-42",
									"linecount" : 2,
									"maxclass" : "newobj",
									"numinlets" : 3,
									"numoutlets" : 2,
									"outlettype" : [ "", "" ],
									"patching_rect" : [ 50.0, 368.0, 199.0, 35.0 ],
									"text" : "mc.gen @chans 8 @interval 50 @active 1",
									"wrapper_uniquekey" : "u121036631"
								}

							}
, 							{
								"box" : 								{
									"comment" : "",
									"id" : "obj-18",
									"index" : 4,
									"maxclass" : "inlet",
									"numinlets" : 0,
									"numoutlets" : 1,
									"outlettype" : [ "" ],
									"patching_rect" : [ 168.0, 40.0, 30.0, 30.0 ]
								}

							}
, 							{
								"box" : 								{
									"comment" : "",
									"id" : "obj-19",
									"index" : 6,
									"maxclass" : "inlet",
									"numinlets" : 0,
									"numoutlets" : 1,
									"outlettype" : [ "" ],
									"patching_rect" : [ 297.0, 40.0, 30.0, 30.0 ]
								}

							}
, 							{
								"box" : 								{
									"comment" : "",
									"id" : "obj-20",
									"index" : 5,
									"maxclass" : "inlet",
									"numinlets" : 0,
									"numoutlets" : 1,
									"outlettype" : [ "" ],
									"patching_rect" : [ 230.0, 40.0, 30.0, 30.0 ]
								}

							}
, 							{
								"box" : 								{
									"comment" : "",
									"id" : "obj-21",
									"index" : 1,
									"maxclass" : "inlet",
									"numinlets" : 0,
									"numoutlets" : 1,
									"outlettype" : [ "" ],
									"patching_rect" : [ 32.0, 41.0, 30.0, 30.0 ]
								}

							}
, 							{
								"box" : 								{
									"comment" : "",
									"id" : "obj-22",
									"index" : 1,
									"maxclass" : "outlet",
									"numinlets" : 1,
									"numoutlets" : 0,
									"patching_rect" : [ 50.0, 592.0, 30.0, 30.0 ]
								}

							}
, 							{
								"box" : 								{
									"fontsize" : 11.0,
									"id" : "obj-65",
									"maxclass" : "newobj",
									"numinlets" : 1,
									"numoutlets" : 2,
									"outlettype" : [ "bang", "" ],
									"patching_rect" : [ 168.0, 502.0, 39.0, 21.0 ],
									"text" : "t b l"
								}

							}
, 							{
								"box" : 								{
									"fontsize" : 11.0,
									"id" : "obj-56",
									"maxclass" : "newobj",
									"numinlets" : 2,
									"numoutlets" : 1,
									"outlettype" : [ "" ],
									"patching_rect" : [ 50.0, 560.0, 139.0, 21.0 ],
									"text" : "vexpr $f1*$f2"
								}

							}
, 							{
								"box" : 								{
									"fontsize" : 11.0,
									"id" : "obj-44",
									"maxclass" : "newobj",
									"numinlets" : 2,
									"numoutlets" : 2,
									"outlettype" : [ "", "" ],
									"patching_rect" : [ 50.0, 515.0, 63.0, 21.0 ],
									"text" : "zl group 8"
								}

							}
, 							{
								"box" : 								{
									"id" : "obj-28",
									"maxclass" : "message",
									"numinlets" : 2,
									"numoutlets" : 1,
									"outlettype" : [ "" ],
									"patching_rect" : [ 63.0, 236.0, 39.0, 22.0 ],
									"text" : "stop"
								}

							}
, 							{
								"box" : 								{
									"attr" : "interval",
									"id" : "obj-13",
									"maxclass" : "attrui",
									"numinlets" : 1,
									"numoutlets" : 1,
									"outlettype" : [ "" ],
									"parameter_enable" : 0,
									"patching_rect" : [ 332.0, 502.0, 136.0, 22.0 ]
								}

							}
 ],
						"lines" : [ 							{
								"patchline" : 								{
									"destination" : [ "obj-11", 1 ],
									"order" : 1,
									"source" : [ "obj-1", 0 ]
								}

							}
, 							{
								"patchline" : 								{
									"destination" : [ "obj-12", 0 ],
									"order" : 0,
									"source" : [ "obj-1", 0 ]
								}

							}
, 							{
								"patchline" : 								{
									"destination" : [ "obj-1", 0 ],
									"source" : [ "obj-10", 0 ]
								}

							}
, 							{
								"patchline" : 								{
									"destination" : [ "obj-14", 0 ],
									"source" : [ "obj-11", 0 ]
								}

							}
, 							{
								"patchline" : 								{
									"destination" : [ "obj-14", 1 ],
									"source" : [ "obj-12", 0 ]
								}

							}
, 							{
								"patchline" : 								{
									"destination" : [ "obj-42", 0 ],
									"source" : [ "obj-13", 0 ]
								}

							}
, 							{
								"patchline" : 								{
									"destination" : [ "obj-44", 0 ],
									"source" : [ "obj-14", 0 ]
								}

							}
, 							{
								"patchline" : 								{
									"destination" : [ "obj-44", 0 ],
									"source" : [ "obj-15", 0 ]
								}

							}
, 							{
								"patchline" : 								{
									"destination" : [ "obj-30", 0 ],
									"source" : [ "obj-16", 0 ]
								}

							}
, 							{
								"patchline" : 								{
									"destination" : [ "obj-15", 0 ],
									"order" : 0,
									"source" : [ "obj-17", 1 ]
								}

							}
, 							{
								"patchline" : 								{
									"destination" : [ "obj-23", 0 ],
									"source" : [ "obj-17", 0 ]
								}

							}
, 							{
								"patchline" : 								{
									"destination" : [ "obj-27", 0 ],
									"order" : 1,
									"source" : [ "obj-17", 1 ]
								}

							}
, 							{
								"patchline" : 								{
									"destination" : [ "obj-28", 0 ],
									"order" : 2,
									"source" : [ "obj-17", 1 ]
								}

							}
, 							{
								"patchline" : 								{
									"destination" : [ "obj-65", 0 ],
									"source" : [ "obj-18", 0 ]
								}

							}
, 							{
								"patchline" : 								{
									"destination" : [ "obj-5", 0 ],
									"source" : [ "obj-19", 0 ]
								}

							}
, 							{
								"patchline" : 								{
									"destination" : [ "obj-42", 2 ],
									"source" : [ "obj-20", 0 ]
								}

							}
, 							{
								"patchline" : 								{
									"destination" : [ "obj-16", 0 ],
									"source" : [ "obj-21", 0 ]
								}

							}
, 							{
								"patchline" : 								{
									"destination" : [ "obj-25", 0 ],
									"source" : [ "obj-23", 0 ]
								}

							}
, 							{
								"patchline" : 								{
									"destination" : [ "obj-50", 0 ],
									"source" : [ "obj-25", 0 ]
								}

							}
, 							{
								"patchline" : 								{
									"destination" : [ "obj-31", 0 ],
									"source" : [ "obj-26", 0 ]
								}

							}
, 							{
								"patchline" : 								{
									"destination" : [ "obj-50", 0 ],
									"source" : [ "obj-27", 0 ]
								}

							}
, 							{
								"patchline" : 								{
									"destination" : [ "obj-23", 0 ],
									"source" : [ "obj-28", 0 ]
								}

							}
, 							{
								"patchline" : 								{
									"destination" : [ "obj-72", 0 ],
									"source" : [ "obj-30", 0 ]
								}

							}
, 							{
								"patchline" : 								{
									"destination" : [ "obj-30", 1 ],
									"source" : [ "obj-31", 1 ]
								}

							}
, 							{
								"patchline" : 								{
									"destination" : [ "obj-30", 0 ],
									"source" : [ "obj-31", 0 ]
								}

							}
, 							{
								"patchline" : 								{
									"destination" : [ "obj-42", 1 ],
									"source" : [ "obj-36", 0 ]
								}

							}
, 							{
								"patchline" : 								{
									"destination" : [ "obj-11", 0 ],
									"source" : [ "obj-42", 0 ]
								}

							}
, 							{
								"patchline" : 								{
									"destination" : [ "obj-56", 0 ],
									"source" : [ "obj-44", 0 ]
								}

							}
, 							{
								"patchline" : 								{
									"destination" : [ "obj-36", 0 ],
									"source" : [ "obj-5", 0 ]
								}

							}
, 							{
								"patchline" : 								{
									"destination" : [ "obj-44", 0 ],
									"source" : [ "obj-5", 1 ]
								}

							}
, 							{
								"patchline" : 								{
									"destination" : [ "obj-42", 0 ],
									"source" : [ "obj-50", 0 ]
								}

							}
, 							{
								"patchline" : 								{
									"destination" : [ "obj-22", 0 ],
									"source" : [ "obj-56", 0 ]
								}

							}
, 							{
								"patchline" : 								{
									"destination" : [ "obj-42", 0 ],
									"midpoints" : [ 114.0, 312.54296875, 59.5, 312.54296875 ],
									"source" : [ "obj-6", 0 ]
								}

							}
, 							{
								"patchline" : 								{
									"destination" : [ "obj-56", 1 ],
									"source" : [ "obj-65", 1 ]
								}

							}
, 							{
								"patchline" : 								{
									"destination" : [ "obj-56", 0 ],
									"source" : [ "obj-65", 0 ]
								}

							}
, 							{
								"patchline" : 								{
									"destination" : [ "obj-17", 0 ],
									"source" : [ "obj-72", 1 ]
								}

							}
, 							{
								"patchline" : 								{
									"destination" : [ "obj-78", 0 ],
									"midpoints" : [ 41.5, 194.90625, 312.5, 194.90625 ],
									"source" : [ "obj-72", 0 ]
								}

							}
, 							{
								"patchline" : 								{
									"destination" : [ "obj-10", 0 ],
									"source" : [ "obj-78", 1 ]
								}

							}
, 							{
								"patchline" : 								{
									"destination" : [ "obj-9", 0 ],
									"source" : [ "obj-78", 0 ]
								}

							}
, 							{
								"patchline" : 								{
									"destination" : [ "obj-1", 0 ],
									"source" : [ "obj-9", 0 ]
								}

							}
 ]
					}
,
					"patching_rect" : [ 34.0, 345.0, 125.0, 22.0 ],
					"text" : "p mod-engine"
				}

			}
, 			{
				"box" : 				{
					"comment" : "",
					"id" : "obj-16",
					"index" : 0,
					"maxclass" : "outlet",
					"numinlets" : 1,
					"numoutlets" : 0,
					"patching_rect" : [ 10.0, 421.0, 30.0, 30.0 ]
				}

			}
, 			{
				"box" : 				{
					"id" : "obj-38",
					"maxclass" : "live.button",
					"numinlets" : 1,
					"numoutlets" : 1,
					"outlettype" : [ "" ],
					"parameter_enable" : 1,
					"patching_rect" : [ 140.5, 119.0, 15.0, 15.0 ],
					"presentation" : 1,
					"presentation_rect" : [ 113.0, 1.0, 14.0, 14.0 ],
					"saved_attribute_attributes" : 					{
						"valueof" : 						{
							"parameter_enum" : [ "off", "on" ],
							"parameter_longname" : "live.button[208]",
							"parameter_mmax" : 1,
							"parameter_modmode" : 0,
							"parameter_shortname" : "live.button[22]",
							"parameter_type" : 2
						}

					}
,
					"varname" : "sync"
				}

			}
, 			{
				"box" : 				{
					"fontname" : "Arial Fett",
					"fontsize" : 10.0,
					"id" : "obj-57",
					"maxclass" : "comment",
					"numinlets" : 1,
					"numoutlets" : 0,
					"patching_rect" : [ 21.0, 268.0, 60.0, 16.0 ],
					"presentation" : 1,
					"presentation_rect" : [ 2.0, 70.0, 61.0, 16.0 ],
					"text" : "mix S / R"
				}

			}
, 			{
				"box" : 				{
					"bgcolor" : [ 0.125490196078431, 0.125490196078431, 0.125490196078431, 0.0 ],
					"contdata" : 1,
					"id" : "obj-55",
					"maxclass" : "multislider",
					"numinlets" : 1,
					"numoutlets" : 2,
					"outlettype" : [ "", "" ],
					"parameter_enable" : 0,
					"patching_rect" : [ 50.0, 215.0, 80.0, 42.0 ],
					"presentation" : 1,
					"presentation_rect" : [ 2.0, 16.0, 125.0, 54.0 ],
					"setminmax" : [ 0.0, 1.0 ],
					"size" : 8,
					"slidercolor" : [ 0.890196078431372, 0.541176470588235, 0.376470588235294, 1.0 ],
					"thickness" : 1,
					"varname" : "mc-fader8"
				}

			}
, 			{
				"box" : 				{
					"appearance" : 2,
					"fontsize" : 11.0,
					"id" : "obj-53",
					"maxclass" : "live.numbox",
					"numinlets" : 1,
					"numoutlets" : 2,
					"outlettype" : [ "", "float" ],
					"parameter_enable" : 1,
					"patching_rect" : [ 75.0, 267.0, 51.0, 17.0 ],
					"presentation" : 1,
					"presentation_rect" : [ 91.0, 69.0, 60.0, 17.0 ],
					"saved_attribute_attributes" : 					{
						"valueof" : 						{
							"parameter_initial" : [ 50 ],
							"parameter_initial_enable" : 1,
							"parameter_linknames" : 1,
							"parameter_longname" : "sr-mix",
							"parameter_mmax" : 100.0,
							"parameter_modmode" : 3,
							"parameter_shortname" : "sr-mix",
							"parameter_type" : 0,
							"parameter_unitstyle" : 1
						}

					}
,
					"varname" : "sr-mix"
				}

			}
, 			{
				"box" : 				{
					"activebgoncolor" : [ 1.0, 0.4, 0.3, 1.0 ],
					"fontsize" : 10.0,
					"id" : "obj-52",
					"maxclass" : "live.text",
					"numinlets" : 1,
					"numoutlets" : 2,
					"outlettype" : [ "", "" ],
					"parameter_enable" : 1,
					"patching_rect" : [ 34.0, 119.0, 34.0, 15.0 ],
					"presentation" : 1,
					"presentation_rect" : [ 1.0, 0.0, 35.0, 16.0 ],
					"saved_attribute_attributes" : 					{
						"activebgoncolor" : 						{
							"expression" : "themecolor.live_active_automation"
						}
,
						"valueof" : 						{
							"parameter_enum" : [ "val1", "val2" ],
							"parameter_linknames" : 1,
							"parameter_longname" : "mod-on",
							"parameter_mmax" : 1,
							"parameter_modmode" : 0,
							"parameter_shortname" : "mod-on",
							"parameter_type" : 2
						}

					}
,
					"text" : "MOD",
					"texton" : "MOD",
					"varname" : "mod-on"
				}

			}
, 			{
				"box" : 				{
					"bgcolor" : [ 0.094117647058824, 0.12156862745098, 0.133333333333333, 1.0 ],
					"contdata" : 1,
					"ghostbar" : 20,
					"id" : "obj-62",
					"ignoreclick" : 1,
					"maxclass" : "multislider",
					"numinlets" : 1,
					"numoutlets" : 2,
					"outlettype" : [ "", "" ],
					"parameter_enable" : 0,
					"patching_rect" : [ 67.0, 160.0, 74.0, 40.0 ],
					"presentation" : 1,
					"presentation_rect" : [ 2.0, 16.0, 125.0, 54.0 ],
					"setminmax" : [ 0.0, 1.0 ],
					"shadowalpha" : 0.26,
					"shadoworientation" : 4,
					"shadowproportion" : 0.78,
					"size" : 8,
					"slidercolor" : [ 0.470588235294118, 0.568627450980392, 0.729411764705882, 0.5 ],
					"spacing" : 2,
					"varname" : "ms-show"
				}

			}
, 			{
				"box" : 				{
					"angle" : 0.0,
					"bgcolor" : [ 0.686274509803922, 0.815686274509804, 0.780392156862745, 0.1 ],
					"border" : 1,
					"bordercolor" : [ 0.611764705882353, 0.690196078431373, 0.72156862745098, 1.0 ],
					"id" : "obj-5",
					"maxclass" : "panel",
					"mode" : 0,
					"numinlets" : 1,
					"numoutlets" : 0,
					"patching_rect" : [ 247.0, 50.5, 104.0, 33.0 ],
					"presentation" : 1,
					"presentation_rect" : [ 1.0, 0.0, 150.0, 120.0 ],
					"proportion" : 0.39,
					"rounded" : 2
				}

			}
 ],
		"lines" : [ 			{
				"patchline" : 				{
					"destination" : [ "obj-4", 0 ],
					"source" : [ "obj-1", 0 ]
				}

			}
, 			{
				"patchline" : 				{
					"destination" : [ "obj-6", 1 ],
					"source" : [ "obj-10", 0 ]
				}

			}
, 			{
				"patchline" : 				{
					"destination" : [ "obj-17", 0 ],
					"order" : 1,
					"source" : [ "obj-11", 0 ]
				}

			}
, 			{
				"patchline" : 				{
					"destination" : [ "obj-18", 1 ],
					"order" : 0,
					"source" : [ "obj-11", 0 ]
				}

			}
, 			{
				"patchline" : 				{
					"destination" : [ "obj-2", 0 ],
					"order" : 2,
					"source" : [ "obj-11", 0 ]
				}

			}
, 			{
				"patchline" : 				{
					"destination" : [ "obj-6", 2 ],
					"source" : [ "obj-12", 0 ]
				}

			}
, 			{
				"patchline" : 				{
					"destination" : [ "obj-35", 0 ],
					"order" : 0,
					"source" : [ "obj-13", 1 ]
				}

			}
, 			{
				"patchline" : 				{
					"destination" : [ "obj-38", 0 ],
					"order" : 1,
					"source" : [ "obj-13", 1 ]
				}

			}
, 			{
				"patchline" : 				{
					"destination" : [ "obj-62", 0 ],
					"order" : 2,
					"source" : [ "obj-13", 1 ]
				}

			}
, 			{
				"patchline" : 				{
					"destination" : [ "obj-10", 1 ],
					"order" : 1,
					"source" : [ "obj-14", 1 ]
				}

			}
, 			{
				"patchline" : 				{
					"destination" : [ "obj-10", 0 ],
					"order" : 1,
					"source" : [ "obj-14", 0 ]
				}

			}
, 			{
				"patchline" : 				{
					"destination" : [ "obj-12", 1 ],
					"order" : 0,
					"source" : [ "obj-14", 1 ]
				}

			}
, 			{
				"patchline" : 				{
					"destination" : [ "obj-12", 0 ],
					"order" : 0,
					"source" : [ "obj-14", 0 ]
				}

			}
, 			{
				"patchline" : 				{
					"destination" : [ "obj-6", 0 ],
					"order" : 2,
					"source" : [ "obj-14", 0 ]
				}

			}
, 			{
				"patchline" : 				{
					"destination" : [ "obj-26", 0 ],
					"source" : [ "obj-17", 0 ]
				}

			}
, 			{
				"patchline" : 				{
					"destination" : [ "obj-10", 0 ],
					"source" : [ "obj-2", 1 ]
				}

			}
, 			{
				"patchline" : 				{
					"destination" : [ "obj-12", 0 ],
					"source" : [ "obj-2", 2 ]
				}

			}
, 			{
				"patchline" : 				{
					"destination" : [ "obj-6", 0 ],
					"source" : [ "obj-2", 0 ]
				}

			}
, 			{
				"patchline" : 				{
					"destination" : [ "obj-21", 0 ],
					"order" : 1,
					"source" : [ "obj-20", 0 ]
				}

			}
, 			{
				"patchline" : 				{
					"destination" : [ "obj-37", 0 ],
					"order" : 0,
					"source" : [ "obj-20", 0 ]
				}

			}
, 			{
				"patchline" : 				{
					"destination" : [ "obj-7", 0 ],
					"source" : [ "obj-20", 1 ]
				}

			}
, 			{
				"patchline" : 				{
					"destination" : [ "obj-9", 1 ],
					"source" : [ "obj-21", 1 ]
				}

			}
, 			{
				"patchline" : 				{
					"destination" : [ "obj-9", 0 ],
					"source" : [ "obj-21", 0 ]
				}

			}
, 			{
				"patchline" : 				{
					"destination" : [ "obj-62", 0 ],
					"source" : [ "obj-22", 0 ]
				}

			}
, 			{
				"patchline" : 				{
					"destination" : [ "obj-22", 0 ],
					"source" : [ "obj-23", 0 ]
				}

			}
, 			{
				"patchline" : 				{
					"destination" : [ "obj-22", 3 ],
					"source" : [ "obj-24", 1 ]
				}

			}
, 			{
				"patchline" : 				{
					"destination" : [ "obj-22", 0 ],
					"source" : [ "obj-24", 0 ]
				}

			}
, 			{
				"patchline" : 				{
					"destination" : [ "obj-27", 1 ],
					"source" : [ "obj-26", 1 ]
				}

			}
, 			{
				"patchline" : 				{
					"destination" : [ "obj-64", 0 ],
					"source" : [ "obj-26", 0 ]
				}

			}
, 			{
				"patchline" : 				{
					"destination" : [ "obj-28", 0 ],
					"source" : [ "obj-27", 0 ]
				}

			}
, 			{
				"patchline" : 				{
					"destination" : [ "obj-20", 0 ],
					"source" : [ "obj-3", 0 ]
				}

			}
, 			{
				"patchline" : 				{
					"destination" : [ "obj-24", 0 ],
					"source" : [ "obj-30", 0 ]
				}

			}
, 			{
				"patchline" : 				{
					"destination" : [ "obj-22", 4 ],
					"source" : [ "obj-31", 0 ]
				}

			}
, 			{
				"patchline" : 				{
					"destination" : [ "obj-37", 0 ],
					"source" : [ "obj-34", 0 ]
				}

			}
, 			{
				"patchline" : 				{
					"destination" : [ "obj-35", 0 ],
					"source" : [ "obj-37", 0 ]
				}

			}
, 			{
				"patchline" : 				{
					"destination" : [ "obj-23", 5 ],
					"source" : [ "obj-38", 0 ]
				}

			}
, 			{
				"patchline" : 				{
					"destination" : [ "obj-45", 0 ],
					"source" : [ "obj-39", 0 ]
				}

			}
, 			{
				"patchline" : 				{
					"destination" : [ "obj-14", 0 ],
					"source" : [ "obj-4", 1 ]
				}

			}
, 			{
				"patchline" : 				{
					"destination" : [ "obj-23", 1 ],
					"source" : [ "obj-4", 4 ]
				}

			}
, 			{
				"patchline" : 				{
					"destination" : [ "obj-38", 0 ],
					"source" : [ "obj-4", 2 ]
				}

			}
, 			{
				"patchline" : 				{
					"destination" : [ "obj-52", 0 ],
					"source" : [ "obj-4", 3 ]
				}

			}
, 			{
				"patchline" : 				{
					"destination" : [ "obj-55", 0 ],
					"midpoints" : [ 24.5, 209.8046875, 59.5, 209.8046875 ],
					"source" : [ "obj-4", 0 ]
				}

			}
, 			{
				"patchline" : 				{
					"destination" : [ "obj-48", 0 ],
					"source" : [ "obj-44", 0 ]
				}

			}
, 			{
				"patchline" : 				{
					"destination" : [ "obj-50", 0 ],
					"source" : [ "obj-45", 0 ]
				}

			}
, 			{
				"patchline" : 				{
					"destination" : [ "obj-15", 0 ],
					"order" : 1,
					"source" : [ "obj-46", 0 ]
				}

			}
, 			{
				"patchline" : 				{
					"destination" : [ "obj-18", 0 ],
					"order" : 0,
					"source" : [ "obj-46", 0 ]
				}

			}
, 			{
				"patchline" : 				{
					"destination" : [ "obj-34", 0 ],
					"order" : 0,
					"source" : [ "obj-47", 0 ]
				}

			}
, 			{
				"patchline" : 				{
					"destination" : [ "obj-50", 0 ],
					"order" : 1,
					"source" : [ "obj-47", 0 ]
				}

			}
, 			{
				"patchline" : 				{
					"destination" : [ "obj-20", 0 ],
					"source" : [ "obj-48", 0 ]
				}

			}
, 			{
				"patchline" : 				{
					"destination" : [ "obj-44", 0 ],
					"source" : [ "obj-49", 0 ]
				}

			}
, 			{
				"patchline" : 				{
					"destination" : [ "obj-35", 0 ],
					"order" : 0,
					"source" : [ "obj-50", 0 ]
				}

			}
, 			{
				"patchline" : 				{
					"destination" : [ "obj-8", 0 ],
					"order" : 1,
					"source" : [ "obj-50", 0 ]
				}

			}
, 			{
				"patchline" : 				{
					"destination" : [ "obj-23", 0 ],
					"source" : [ "obj-52", 0 ]
				}

			}
, 			{
				"patchline" : 				{
					"destination" : [ "obj-23", 4 ],
					"source" : [ "obj-53", 0 ]
				}

			}
, 			{
				"patchline" : 				{
					"destination" : [ "obj-23", 3 ],
					"source" : [ "obj-55", 0 ]
				}

			}
, 			{
				"patchline" : 				{
					"destination" : [ "obj-23", 2 ],
					"source" : [ "obj-6", 0 ]
				}

			}
, 			{
				"patchline" : 				{
					"destination" : [ "obj-16", 0 ],
					"midpoints" : [ 76.5, 245.69921875, 19.5, 245.69921875 ],
					"source" : [ "obj-62", 0 ]
				}

			}
, 			{
				"patchline" : 				{
					"destination" : [ "obj-27", 0 ],
					"source" : [ "obj-64", 0 ]
				}

			}
, 			{
				"patchline" : 				{
					"destination" : [ "obj-15", 1 ],
					"order" : 1,
					"source" : [ "obj-7", 0 ]
				}

			}
, 			{
				"patchline" : 				{
					"destination" : [ "obj-64", 1 ],
					"order" : 0,
					"source" : [ "obj-7", 0 ]
				}

			}
, 			{
				"patchline" : 				{
					"destination" : [ "obj-31", 0 ],
					"source" : [ "obj-8", 1 ]
				}

			}
, 			{
				"patchline" : 				{
					"destination" : [ "obj-9", 0 ],
					"source" : [ "obj-8", 0 ]
				}

			}
, 			{
				"patchline" : 				{
					"destination" : [ "obj-30", 0 ],
					"source" : [ "obj-9", 0 ]
				}

			}
 ],
		"parameters" : 		{
			"obj-11::obj-13" : [ "umenu[1]", "umenu[2]", 0 ],
			"obj-11::obj-14" : [ "ubutton[1]", "ubutton", 0 ],
			"obj-11::obj-32" : [ "numdev1[1]", "numdev1", 0 ],
			"obj-11::obj-55" : [ "live.button[1]", "live.button[22]", 0 ],
			"obj-11::obj-62" : [ "numdev2[1]", "numdev2", 0 ],
			"obj-11::obj-69" : [ "numexp2[1]", "numexp2", 0 ],
			"obj-11::obj-7" : [ "numinc2[1]", "numinc2", 0 ],
			"obj-11::obj-70" : [ "numexp1[1]", "numexp1", 0 ],
			"obj-11::obj-71" : [ "numscalexp2[1]", "numscalexp2", 0 ],
			"obj-11::obj-72" : [ "numscalexp1[1]", "numscalexp1", 0 ],
			"obj-11::obj-73" : [ "numharm2[1]", "numspread2", 0 ],
			"obj-11::obj-74" : [ "numharm1[1]", "numspread1", 0 ],
			"obj-11::obj-75" : [ "numsubharm2[1]", "numsubharm2", 0 ],
			"obj-11::obj-76" : [ "numsubharm1[1]", "numsubharm1", 0 ],
			"obj-11::obj-77" : [ "numspread2[1]", "numspread2", 0 ],
			"obj-11::obj-78" : [ "numspread1[1]", "numspread1", 0 ],
			"obj-11::obj-8" : [ "numinc1[1]", "numinc1", 0 ],
			"obj-38" : [ "live.button[208]", "live.button[22]", 0 ],
			"obj-47" : [ "live.button[2]", "live.button[22]", 0 ],
			"obj-52" : [ "mod-on", "mod-on", 0 ],
			"obj-53" : [ "sr-mix", "sr-mix", 0 ],
			"parameterbanks" : 			{
				"0" : 				{
					"index" : 0,
					"name" : "",
					"parameters" : [ "-", "-", "-", "-", "-", "-", "-", "-" ]
				}

			}
,
			"inherited_shortname" : 1
		}
,
		"dependency_cache" : [ 			{
				"name" : "2gate.maxpat",
				"bootpath" : "~/Music/_projekte2025/Alte Post2025/AP_MAX_work/APO_main/patchers",
				"patcherrelativepath" : ".",
				"type" : "JSON",
				"implicit" : 1
			}
, 			{
				"name" : "mc.opx1amod.maxpat",
				"bootpath" : "~/Music/_projekte2025/Alte Post2025/AP_MAX_work/APO_main/patchers",
				"patcherrelativepath" : ".",
				"type" : "JSON",
				"implicit" : 1
			}
, 			{
				"name" : "onepole.gendsp",
				"bootpath" : "~/Music/_projekte2025/Alte Post2025/AP_MAX_work/APO_main/code",
				"patcherrelativepath" : "../code",
				"type" : "gDSP",
				"implicit" : 1
			}
, 			{
				"name" : "pink.gendsp",
				"bootpath" : "~/Music/_projekte2025/Alte Post2025/AP_MAX_work/APO_main/code",
				"patcherrelativepath" : "../code",
				"type" : "gDSP",
				"implicit" : 1
			}
, 			{
				"name" : "thru.maxpat",
				"bootpath" : "~/Music/_projekte2025/Alte Post2025/AP_MAX_work/APO_main/patchers",
				"patcherrelativepath" : ".",
				"type" : "JSON",
				"implicit" : 1
			}
 ],
		"autosave" : 0
	}

}
